<?xml version="1.0" encoding="utf-8"?>
<!-- Generator: Adobe Illustrator 26.3.1, SVG Export Plug-In . SVG Version: 6.00 Build 0)  -->
<svg version="1.1" id="レイヤー_1" xmlns="http://www.w3.org/2000/svg" xmlns:xlink="http://www.w3.org/1999/xlink" x="0px"
	 y="0px" viewBox="0 0 300 52" style="enable-background:new 0 0 300 52;" xml:space="preserve">
<style type="text/css">
	.st0{fill:#438093;}
</style>
<g>
	<path d="M100.19,20.53h3.89c1.5,0.01,2.63,0.66,3.39,1.94c0.27,0.43,0.44,0.88,0.51,1.35c0.06,0.47,0.08,1.29,0.08,2.45
		c0,1.23-0.04,2.09-0.13,2.58c-0.04,0.25-0.1,0.47-0.18,0.66c-0.09,0.19-0.19,0.39-0.31,0.59c-0.33,0.54-0.78,0.99-1.36,1.34
		c-0.57,0.38-1.28,0.57-2.11,0.57h-3.77V20.53z M101.87,30.37h2.01c0.95,0,1.63-0.33,2.06-1c0.19-0.25,0.31-0.56,0.36-0.94
		c0.05-0.37,0.07-1.07,0.07-2.1c0-1-0.02-1.71-0.07-2.14c-0.06-0.43-0.21-0.78-0.43-1.05c-0.47-0.67-1.13-0.99-1.98-0.97h-2.01
		V30.37z"/>
	<path d="M110.25,20.53h1.59v1.64h-1.59V20.53z M110.25,23.84h1.59v8.17h-1.59V23.84z"/>
	<path d="M114.07,23.84h1.59v0.87h0.03c0.52-0.65,1.21-0.97,2.06-0.97c0.64,0.01,1.19,0.22,1.66,0.63l-1.16,1.42
		c-0.34-0.27-0.68-0.41-1.05-0.41c-0.41,0-0.76,0.14-1.05,0.41c-0.33,0.27-0.49,0.7-0.5,1.3v4.93h-1.59V23.84z"/>
	<path d="M121.53,28.55c0,0.66,0.18,1.16,0.55,1.5c0.34,0.35,0.79,0.52,1.34,0.52c0.65,0,1.22-0.26,1.73-0.8l1.15,1.02
		c-0.81,0.89-1.76,1.33-2.85,1.32c-0.42,0-0.82-0.06-1.22-0.19c-0.2-0.07-0.39-0.16-0.58-0.28c-0.2-0.1-0.38-0.22-0.56-0.37
		c-0.34-0.3-0.61-0.73-0.82-1.27c-0.23-0.52-0.34-1.21-0.34-2.05c0-0.81,0.1-1.48,0.3-2.02c0.2-0.55,0.45-0.98,0.76-1.29
		c0.32-0.32,0.67-0.55,1.06-0.69c0.39-0.14,0.77-0.21,1.14-0.21c0.9,0.01,1.67,0.32,2.29,0.92c0.64,0.61,0.96,1.46,0.97,2.53v1.35
		H121.53z M124.88,27.19c-0.02-0.64-0.19-1.12-0.5-1.45c-0.31-0.31-0.7-0.47-1.18-0.47c-0.48,0-0.87,0.16-1.18,0.47
		c-0.3,0.33-0.47,0.81-0.5,1.45H124.88z"/>
	<path d="M134.22,30.69c-0.35,0.41-0.75,0.74-1.22,0.99c-0.47,0.27-1.01,0.4-1.62,0.41c-0.93,0-1.75-0.33-2.46-0.98
		c-0.73-0.66-1.11-1.72-1.13-3.19c0.02-1.48,0.4-2.56,1.13-3.23c0.71-0.66,1.53-0.98,2.46-0.97c0.61,0.01,1.16,0.14,1.62,0.39
		c0.47,0.26,0.87,0.6,1.22,1.03l-1.17,1.08c-0.4-0.55-0.94-0.84-1.61-0.86c-1.35-0.02-2.04,0.83-2.06,2.56
		c0.02,1.72,0.71,2.56,2.06,2.53c0.67-0.01,1.21-0.29,1.61-0.85L134.22,30.69z"/>
	<path d="M135.64,21.35h1.59v2.49h1.16v1.26h-1.16v4.76c-0.01,0.41,0.18,0.62,0.56,0.61h0.59v1.54h-0.83
		c-0.56,0-1.01-0.18-1.37-0.54c-0.37-0.34-0.55-0.83-0.55-1.48v-4.9h-0.8v-1.26h0.8V21.35z"/>
	<path d="M140.08,20.53h1.59v1.64h-1.59V20.53z M140.08,23.84h1.59v8.17h-1.59V23.84z"/>
	<path d="M143.5,27.92c0-0.86,0.07-1.52,0.21-1.99c0.14-0.45,0.36-0.83,0.66-1.14c0.22-0.27,0.52-0.51,0.91-0.73
		c0.39-0.2,0.88-0.31,1.49-0.32c0.62,0.01,1.13,0.12,1.52,0.32c0.38,0.22,0.68,0.46,0.88,0.73c0.31,0.31,0.54,0.69,0.67,1.14
		c0.13,0.46,0.19,1.12,0.19,1.98s-0.06,1.52-0.19,1.97c-0.13,0.45-0.36,0.84-0.67,1.17c-0.1,0.12-0.23,0.24-0.37,0.35
		c-0.13,0.13-0.3,0.24-0.51,0.34c-0.39,0.23-0.89,0.34-1.52,0.35c-0.6-0.01-1.1-0.13-1.49-0.35c-0.39-0.2-0.7-0.44-0.91-0.69
		c-0.29-0.33-0.51-0.72-0.65-1.17C143.57,29.43,143.5,28.78,143.5,27.92z M148.43,27.93c0-0.58-0.03-1.01-0.08-1.28
		c-0.05-0.26-0.16-0.48-0.31-0.68c-0.12-0.18-0.29-0.33-0.52-0.43c-0.22-0.11-0.47-0.17-0.76-0.17c-0.27,0-0.52,0.05-0.75,0.17
		c-0.22,0.1-0.4,0.25-0.53,0.43c-0.14,0.19-0.24,0.42-0.3,0.68c-0.06,0.27-0.09,0.69-0.09,1.26c0,0.57,0.03,0.98,0.09,1.25
		c0.06,0.27,0.16,0.51,0.3,0.71c0.14,0.16,0.32,0.3,0.53,0.42c0.23,0.12,0.48,0.17,0.75,0.17c0.29,0,0.54-0.06,0.76-0.17
		c0.23-0.12,0.4-0.26,0.52-0.42c0.16-0.21,0.26-0.44,0.31-0.71C148.41,28.9,148.43,28.49,148.43,27.93z"/>
	<path d="M151.95,23.84h1.59v0.87h0.03c0.52-0.65,1.21-0.97,2.06-0.97c0.65,0,1.25,0.24,1.8,0.72c0.54,0.48,0.82,1.19,0.85,2.12
		v5.43h-1.59v-4.87c0-0.57-0.15-1.01-0.44-1.31c-0.29-0.3-0.66-0.46-1.12-0.46s-0.83,0.15-1.13,0.46c-0.3,0.3-0.45,0.74-0.45,1.31
		v4.87h-1.59V23.84z"/>
	<path d="M164.75,29.23c0.89,0.75,1.94,1.13,3.16,1.14c1.44-0.02,2.18-0.55,2.2-1.6c0.01-0.86-0.47-1.37-1.45-1.54
		c-0.45-0.06-0.94-0.13-1.47-0.21c-0.96-0.16-1.68-0.53-2.18-1.09c-0.51-0.58-0.77-1.29-0.77-2.13c0-1,0.32-1.81,0.97-2.43
		c0.62-0.61,1.51-0.92,2.66-0.93c1.38,0.03,2.58,0.43,3.6,1.18l-0.94,1.43c-0.83-0.57-1.75-0.86-2.75-0.88
		c-0.52,0-0.95,0.13-1.3,0.4c-0.36,0.28-0.55,0.69-0.56,1.24c0,0.33,0.12,0.63,0.37,0.9c0.25,0.27,0.65,0.46,1.2,0.57
		c0.3,0.05,0.72,0.11,1.25,0.18c1.04,0.15,1.81,0.53,2.31,1.16c0.49,0.61,0.74,1.33,0.74,2.14c-0.06,2.2-1.36,3.31-3.9,3.34
		c-1.65,0-3.06-0.52-4.24-1.57L164.75,29.23z"/>
	<path d="M173.72,23.84h1.59v4.87c0,0.55,0.15,0.98,0.45,1.29c0.29,0.31,0.67,0.46,1.13,0.46s0.83-0.15,1.12-0.46
		c0.3-0.31,0.44-0.74,0.44-1.29v-4.87h1.59v8.17h-1.59v-0.87h-0.03c-0.52,0.64-1.21,0.97-2.05,0.97c-0.65-0.01-1.25-0.26-1.77-0.74
		c-0.57-0.47-0.87-1.17-0.88-2.09V23.84z"/>
	<path d="M182.37,23.84h1.59v0.85c0.53-0.61,1.21-0.93,2.04-0.95c0.97,0.03,1.68,0.38,2.13,1.07c0.22,0.26,0.37,0.59,0.45,1.02
		c0.08,0.41,0.11,1.12,0.11,2.11c0,0.97-0.04,1.66-0.11,2.08c-0.08,0.42-0.23,0.76-0.45,1.03c-0.22,0.32-0.51,0.57-0.86,0.76
		c-0.35,0.19-0.77,0.3-1.26,0.31c-0.41,0-0.77-0.09-1.09-0.27c-0.35-0.17-0.66-0.4-0.95-0.69v4.17h-1.59V23.84z M185.53,30.47
		c0.38,0,0.67-0.07,0.89-0.22c0.22-0.15,0.37-0.35,0.47-0.58c0.1-0.25,0.17-0.52,0.21-0.82c0.01-0.29,0.02-0.6,0.02-0.91
		c0-0.33-0.01-0.64-0.02-0.96c-0.04-0.31-0.1-0.58-0.21-0.82c-0.09-0.25-0.25-0.44-0.47-0.58c-0.22-0.13-0.52-0.2-0.89-0.2
		c-0.36,0-0.64,0.08-0.85,0.23c-0.22,0.15-0.38,0.35-0.48,0.6c-0.1,0.25-0.16,0.52-0.19,0.81c-0.03,0.31-0.05,0.61-0.05,0.92
		c0,0.29,0.02,0.58,0.05,0.87c0.03,0.31,0.09,0.58,0.19,0.83c0.1,0.25,0.26,0.45,0.48,0.6C184.89,30.39,185.17,30.47,185.53,30.47z"
		/>
	<path d="M190.74,23.84h1.59v0.85c0.53-0.61,1.21-0.93,2.04-0.95c0.97,0.03,1.68,0.38,2.13,1.07c0.22,0.26,0.37,0.59,0.45,1.02
		c0.08,0.41,0.11,1.12,0.11,2.11c0,0.97-0.04,1.66-0.11,2.08c-0.08,0.42-0.23,0.76-0.45,1.03c-0.22,0.32-0.51,0.57-0.86,0.76
		c-0.35,0.19-0.77,0.3-1.26,0.31c-0.41,0-0.77-0.09-1.09-0.27c-0.35-0.17-0.66-0.4-0.95-0.69v4.17h-1.59V23.84z M193.89,30.47
		c0.38,0,0.67-0.07,0.89-0.22c0.22-0.15,0.37-0.35,0.47-0.58c0.1-0.25,0.17-0.52,0.21-0.82c0.01-0.29,0.02-0.6,0.02-0.91
		c0-0.33-0.01-0.64-0.02-0.96c-0.04-0.31-0.1-0.58-0.21-0.82c-0.09-0.25-0.25-0.44-0.47-0.58c-0.22-0.13-0.52-0.2-0.89-0.2
		c-0.36,0-0.64,0.08-0.85,0.23c-0.22,0.15-0.38,0.35-0.48,0.6c-0.1,0.25-0.16,0.52-0.19,0.81c-0.03,0.31-0.05,0.61-0.05,0.92
		c0,0.29,0.02,0.58,0.05,0.87c0.03,0.31,0.09,0.58,0.19,0.83c0.1,0.25,0.26,0.45,0.48,0.6C193.25,30.39,193.54,30.47,193.89,30.47z"
		/>
	<path d="M198.71,27.92c0-0.86,0.07-1.52,0.21-1.99c0.14-0.45,0.36-0.83,0.66-1.14c0.22-0.27,0.52-0.51,0.91-0.73
		c0.39-0.2,0.88-0.31,1.49-0.32c0.62,0.01,1.13,0.12,1.52,0.32c0.38,0.22,0.68,0.46,0.88,0.73c0.31,0.31,0.54,0.69,0.67,1.14
		c0.13,0.46,0.19,1.12,0.19,1.98s-0.06,1.52-0.19,1.97c-0.13,0.45-0.36,0.84-0.67,1.17c-0.1,0.12-0.23,0.24-0.37,0.35
		c-0.13,0.13-0.3,0.24-0.51,0.34c-0.39,0.23-0.89,0.34-1.52,0.35c-0.6-0.01-1.1-0.13-1.49-0.35c-0.39-0.2-0.7-0.44-0.91-0.69
		c-0.29-0.33-0.51-0.72-0.65-1.17C198.78,29.43,198.71,28.78,198.71,27.92z M203.65,27.93c0-0.58-0.02-1.01-0.08-1.28
		c-0.05-0.26-0.16-0.48-0.31-0.68c-0.12-0.18-0.29-0.33-0.52-0.43c-0.22-0.11-0.47-0.17-0.76-0.17c-0.27,0-0.52,0.05-0.75,0.17
		c-0.22,0.1-0.4,0.25-0.53,0.43c-0.14,0.19-0.24,0.42-0.3,0.68c-0.06,0.27-0.09,0.69-0.09,1.26c0,0.57,0.03,0.98,0.09,1.25
		c0.06,0.27,0.16,0.51,0.3,0.71c0.14,0.16,0.32,0.3,0.53,0.42c0.23,0.12,0.48,0.17,0.75,0.17c0.29,0,0.54-0.06,0.76-0.17
		c0.23-0.12,0.4-0.26,0.52-0.42c0.16-0.21,0.26-0.44,0.31-0.71C203.62,28.9,203.65,28.49,203.65,27.93z"/>
	<path d="M207.16,23.84h1.59v0.87h0.03c0.52-0.65,1.21-0.97,2.06-0.97c0.64,0.01,1.19,0.22,1.66,0.63l-1.16,1.42
		c-0.34-0.27-0.68-0.41-1.05-0.41c-0.41,0-0.76,0.14-1.05,0.41c-0.33,0.27-0.49,0.7-0.5,1.3v4.93h-1.59V23.84z"/>
	<path d="M213.53,21.35h1.59v2.49h1.16v1.26h-1.16v4.76c-0.01,0.41,0.18,0.62,0.56,0.61h0.59v1.54h-0.83
		c-0.56,0-1.01-0.18-1.37-0.54c-0.36-0.34-0.55-0.83-0.55-1.48v-4.9h-0.8v-1.26h0.8V21.35z"/>
	<path d="M227.62,29.44h-4.21l-0.85,2.57h-1.78l4.04-11.47h1.41l4.04,11.47h-1.78L227.62,29.44z M227.14,27.9l-1.61-5.02h-0.03
		l-1.61,5.02H227.14z"/>
	<path d="M231.84,29.51c0.65,0.7,1.48,1.05,2.51,1.05c0.46,0,0.83-0.09,1.12-0.27c0.29-0.18,0.44-0.44,0.44-0.77
		c0-0.29-0.09-0.5-0.26-0.61c-0.18-0.12-0.42-0.19-0.71-0.2l-1.4-0.13c-0.67-0.06-1.21-0.29-1.63-0.69
		c-0.43-0.39-0.65-0.93-0.66-1.63c0.01-0.84,0.3-1.47,0.86-1.89c0.55-0.42,1.25-0.63,2.09-0.63c0.37,0,0.69,0.02,0.98,0.07
		c0.29,0.05,0.56,0.13,0.82,0.22c0.49,0.2,0.93,0.48,1.31,0.83l-0.99,1.19c-0.31-0.23-0.63-0.42-0.97-0.56
		c-0.34-0.13-0.72-0.2-1.16-0.2c-0.5,0-0.85,0.09-1.05,0.28c-0.21,0.18-0.31,0.42-0.31,0.71c-0.01,0.18,0.07,0.34,0.24,0.48
		c0.15,0.15,0.42,0.25,0.81,0.29l1.31,0.1c0.83,0.06,1.42,0.32,1.79,0.77c0.34,0.44,0.51,1,0.51,1.68
		c-0.01,0.79-0.32,1.41-0.94,1.84c-0.61,0.44-1.39,0.67-2.34,0.68c-1.29,0-2.45-0.49-3.48-1.46L231.84,29.51z"/>
	<path d="M239.58,29.51c0.65,0.7,1.48,1.05,2.51,1.05c0.46,0,0.83-0.09,1.12-0.27c0.29-0.18,0.44-0.44,0.44-0.77
		c0-0.29-0.09-0.5-0.26-0.61c-0.18-0.12-0.42-0.19-0.71-0.2l-1.4-0.13c-0.67-0.06-1.21-0.29-1.63-0.69
		c-0.43-0.39-0.65-0.93-0.66-1.63c0.01-0.84,0.3-1.47,0.86-1.89c0.55-0.42,1.25-0.63,2.09-0.63c0.37,0,0.69,0.02,0.98,0.07
		c0.29,0.05,0.56,0.13,0.82,0.22c0.49,0.2,0.93,0.48,1.31,0.83l-0.99,1.19c-0.31-0.23-0.63-0.42-0.97-0.56
		c-0.34-0.13-0.72-0.2-1.16-0.2c-0.5,0-0.85,0.09-1.05,0.28c-0.21,0.18-0.31,0.42-0.31,0.71c-0.01,0.18,0.07,0.34,0.24,0.48
		c0.15,0.15,0.42,0.25,0.81,0.29l1.31,0.1c0.83,0.06,1.42,0.32,1.79,0.77c0.34,0.44,0.51,1,0.51,1.68
		c-0.01,0.79-0.32,1.41-0.94,1.84c-0.61,0.44-1.39,0.67-2.34,0.68c-1.29,0-2.45-0.49-3.48-1.46L239.58,29.51z"/>
	<path d="M246.69,27.92c0-0.86,0.07-1.52,0.21-1.99c0.14-0.45,0.36-0.83,0.66-1.14c0.22-0.27,0.52-0.51,0.91-0.73
		c0.39-0.2,0.88-0.31,1.49-0.32c0.62,0.01,1.13,0.12,1.52,0.32c0.38,0.22,0.68,0.46,0.88,0.73c0.31,0.31,0.54,0.69,0.67,1.14
		c0.13,0.46,0.19,1.12,0.19,1.98s-0.06,1.52-0.19,1.97c-0.13,0.45-0.36,0.84-0.67,1.17c-0.1,0.12-0.23,0.24-0.37,0.35
		c-0.13,0.13-0.3,0.24-0.51,0.34c-0.39,0.23-0.89,0.34-1.52,0.35c-0.6-0.01-1.1-0.13-1.49-0.35c-0.39-0.2-0.7-0.44-0.91-0.69
		c-0.29-0.33-0.51-0.72-0.65-1.17C246.76,29.43,246.69,28.78,246.69,27.92z M251.62,27.93c0-0.58-0.02-1.01-0.08-1.28
		c-0.05-0.26-0.16-0.48-0.31-0.68c-0.12-0.18-0.29-0.33-0.52-0.43c-0.22-0.11-0.47-0.17-0.76-0.17c-0.27,0-0.52,0.05-0.75,0.17
		c-0.22,0.1-0.4,0.25-0.53,0.43c-0.14,0.19-0.24,0.42-0.3,0.68c-0.06,0.27-0.09,0.69-0.09,1.26c0,0.57,0.03,0.98,0.09,1.25
		c0.06,0.27,0.16,0.51,0.3,0.71c0.14,0.16,0.32,0.3,0.53,0.42c0.23,0.12,0.48,0.17,0.75,0.17c0.29,0,0.54-0.06,0.76-0.17
		c0.23-0.12,0.4-0.26,0.52-0.42c0.16-0.21,0.26-0.44,0.31-0.71C251.6,28.9,251.62,28.49,251.62,27.93z"/>
	<path d="M260.96,30.69c-0.35,0.41-0.75,0.74-1.22,0.99c-0.47,0.27-1.01,0.4-1.62,0.41c-0.93,0-1.75-0.33-2.46-0.98
		c-0.73-0.66-1.11-1.72-1.13-3.19c0.02-1.48,0.4-2.56,1.13-3.23c0.71-0.66,1.53-0.98,2.46-0.97c0.61,0.01,1.16,0.14,1.62,0.39
		c0.47,0.26,0.87,0.6,1.22,1.03l-1.17,1.08c-0.4-0.55-0.94-0.84-1.61-0.86c-1.35-0.02-2.04,0.83-2.06,2.56
		c0.02,1.72,0.71,2.56,2.06,2.53c0.67-0.01,1.21-0.29,1.61-0.85L260.96,30.69z"/>
	<path d="M262.34,20.53h1.59v1.64h-1.59V20.53z M262.34,23.84h1.59v8.17h-1.59V23.84z"/>
	<path d="M270.31,31.29h-0.03c-0.15,0.28-0.38,0.48-0.69,0.61c-0.3,0.14-0.73,0.2-1.26,0.2c-0.88-0.01-1.56-0.25-2.04-0.72
		c-0.5-0.46-0.75-1.05-0.75-1.77c0-0.69,0.22-1.26,0.65-1.71c0.44-0.46,1.08-0.7,1.92-0.71h2.2v-0.86c0.01-0.72-0.53-1.07-1.62-1.05
		c-0.4,0-0.71,0.04-0.94,0.13c-0.24,0.1-0.43,0.27-0.56,0.51l-1.25-0.98c0.6-0.81,1.5-1.21,2.67-1.19c0.99-0.01,1.79,0.18,2.38,0.58
		c0.59,0.41,0.9,1.11,0.91,2.11v5.58h-1.59V31.29z M270.31,28.55h-1.91c-0.93,0.02-1.39,0.35-1.37,0.98c0,0.28,0.12,0.51,0.36,0.71
		c0.23,0.22,0.61,0.32,1.14,0.32c0.67,0.01,1.14-0.07,1.41-0.24c0.25-0.17,0.37-0.57,0.37-1.18V28.55z"/>
	<path d="M274.31,21.35h1.59v2.49h1.16v1.26h-1.16v4.76c-0.01,0.41,0.18,0.62,0.56,0.61h0.59v1.54h-0.83
		c-0.56,0-1.01-0.18-1.37-0.54c-0.36-0.34-0.55-0.83-0.55-1.48v-4.9h-0.8v-1.26h0.8V21.35z"/>
	<path d="M278.74,20.53h1.59v1.64h-1.59V20.53z M278.74,23.84h1.59v8.17h-1.59V23.84z"/>
	<path d="M282.16,27.92c0-0.86,0.07-1.52,0.21-1.99c0.14-0.45,0.36-0.83,0.66-1.14c0.22-0.27,0.52-0.51,0.91-0.73
		c0.39-0.2,0.88-0.31,1.49-0.32c0.62,0.01,1.13,0.12,1.52,0.32c0.38,0.22,0.68,0.46,0.88,0.73c0.31,0.31,0.54,0.69,0.67,1.14
		c0.13,0.46,0.19,1.12,0.19,1.98s-0.06,1.52-0.19,1.97c-0.13,0.45-0.36,0.84-0.67,1.17c-0.1,0.12-0.23,0.24-0.37,0.35
		c-0.13,0.13-0.3,0.24-0.51,0.34c-0.39,0.23-0.89,0.34-1.52,0.35c-0.6-0.01-1.1-0.13-1.49-0.35c-0.39-0.2-0.7-0.44-0.91-0.69
		c-0.29-0.33-0.51-0.72-0.65-1.17C282.23,29.43,282.16,28.78,282.16,27.92z M287.1,27.93c0-0.58-0.02-1.01-0.08-1.28
		c-0.05-0.26-0.16-0.48-0.31-0.68c-0.12-0.18-0.29-0.33-0.52-0.43c-0.22-0.11-0.47-0.17-0.76-0.17c-0.27,0-0.52,0.05-0.75,0.17
		c-0.22,0.1-0.4,0.25-0.53,0.43c-0.14,0.19-0.24,0.42-0.3,0.68c-0.06,0.27-0.09,0.69-0.09,1.26c0,0.57,0.03,0.98,0.09,1.25
		c0.06,0.27,0.16,0.51,0.3,0.71c0.14,0.16,0.32,0.3,0.53,0.42c0.23,0.12,0.48,0.17,0.75,0.17c0.29,0,0.54-0.06,0.76-0.17
		c0.23-0.12,0.4-0.26,0.52-0.42c0.16-0.21,0.26-0.44,0.31-0.71C287.07,28.9,287.1,28.49,287.1,27.93z"/>
	<path d="M290.62,23.84h1.59v0.87h0.03c0.52-0.65,1.21-0.97,2.06-0.97c0.65,0,1.25,0.24,1.8,0.72c0.54,0.48,0.82,1.19,0.84,2.12
		v5.43h-1.59v-4.87c0-0.57-0.15-1.01-0.44-1.31c-0.29-0.3-0.66-0.46-1.12-0.46s-0.83,0.15-1.13,0.46c-0.3,0.3-0.45,0.74-0.45,1.31
		v4.87h-1.59V23.84z"/>
</g>
<g>
	<path d="M99.82,42.44h9.74v0.78h-9.74V42.44z"/>
	<path d="M114.74,43.01l-0.52,0.06v4c0,0.71-0.33,0.76-1.53,0.76c-0.03-0.17-0.13-0.42-0.21-0.59c0.46,0.01,0.86,0.01,0.97,0.01
		c0.14,0,0.18-0.04,0.18-0.18v-3.91l-2,0.24c0,1.38-0.1,3.22-0.88,4.43c-0.11-0.11-0.36-0.27-0.5-0.34c0.73-1.14,0.8-2.74,0.8-4.02
		l-0.4,0.04c-0.01,0.08-0.07,0.13-0.14,0.15l-0.24-0.73l0.78-0.07v-3.33h0.9c0.17-0.44,0.35-1.05,0.43-1.47l0.87,0.23
		c-0.02,0.06-0.11,0.11-0.22,0.11c-0.11,0.32-0.27,0.77-0.44,1.14h1.64v3l0.5-0.05L114.74,43.01z M111.63,40.12v2.69l2-0.21v-2.48
		H111.63z M112.66,42.24c-0.08-0.41-0.32-1.01-0.59-1.47l0.45-0.18c0.29,0.44,0.55,1.04,0.63,1.45L112.66,42.24z M112.99,43.71
		c-0.01,0.06-0.05,0.11-0.18,0.12v2.37h-0.48v-2.53L112.99,43.71z M119.12,42.83l0.45,0.18c-0.02,0.06-0.06,0.08-0.09,0.12
		c-0.34,1.19-0.91,2.15-1.66,2.91c0.67,0.56,1.47,0.98,2.39,1.21c-0.15,0.14-0.34,0.41-0.44,0.59c-0.94-0.28-1.75-0.74-2.43-1.35
		c-0.71,0.61-1.55,1.06-2.43,1.36c-0.08-0.17-0.25-0.45-0.4-0.6c0.84-0.24,1.65-0.66,2.34-1.24c-0.61-0.66-1.09-1.47-1.43-2.38
		l0.49-0.13h-0.89v-0.64h3.97L119.12,42.83z M116.27,39.11v0.81c0,0.82-0.18,1.86-1.04,2.56c-0.11-0.13-0.36-0.35-0.51-0.43
		c0.79-0.62,0.9-1.45,0.9-2.14v-1.42h3.04v2.5c0,0.36,0.02,0.4,0.23,0.4h0.33c0.09,0,0.2,0,0.24-0.03c0.15-0.08,0.15-0.41,0.17-1.09
		c0.13,0.12,0.35,0.23,0.53,0.28c-0.02,0.94-0.04,1.41-0.87,1.41h-0.53c-0.75,0-0.75-0.46-0.75-1.03v-1.81H116.27z M116,43.5
		c0.29,0.78,0.75,1.48,1.31,2.07c0.56-0.57,1.02-1.26,1.31-2.07H116z"/>
	<path d="M125.15,40.31c-0.01,0.04-0.07,0.08-0.13,0.11c-0.37,0.87-0.9,1.71-1.51,2.48c0.5,0.34,1.53,1.09,1.81,1.3l-0.42,0.59
		c-0.29-0.29-0.97-0.85-1.48-1.26v4.31h-0.7v-4.05c-0.54,0.54-1.09,1.01-1.65,1.38c-0.07-0.18-0.26-0.49-0.38-0.62
		c1.32-0.82,2.72-2.28,3.48-3.83h-3.21v-0.65h1.76v-2.01l0.91,0.05c-0.01,0.07-0.07,0.13-0.21,0.15v1.81h1.14l0.13-0.04
		L125.15,40.31z M128.15,46.82h2.54v0.69h-6.01v-0.69h2.75v-4.55h-2.33v-0.68h2.33v-3.45l0.94,0.06c-0.01,0.07-0.07,0.13-0.22,0.15
		v3.24h2.32v0.68h-2.32V46.82z"/>
	<path d="M131.8,38.56h8.88v9.26h-0.73v-0.49h-7.46v0.49h-0.69V38.56z M132.49,46.65h7.46v-7.4h-7.46V46.65z M139.49,41.13v0.63
		h-1.62v3.53c0,0.82-0.41,0.82-2.05,0.82c-0.03-0.18-0.13-0.44-0.21-0.62c0.32,0.01,0.62,0.01,0.86,0.01c0.65,0,0.73,0,0.73-0.21
		v-3.53h-4.11v-0.63h4.11v-1.49l0.87,0.05c-0.01,0.06-0.06,0.12-0.2,0.14v1.3H139.49z M135.24,44.63c-0.2-0.58-0.75-1.42-1.29-2.02
		l0.53-0.27c0.55,0.59,1.11,1.41,1.32,1.98L135.24,44.63z"/>
	<path d="M142.21,41.06c0.74,0.23,1.67,0.64,2.15,0.98l-0.38,0.61c-0.46-0.35-1.39-0.79-2.12-1.04L142.21,41.06z M142.23,47.23
		c0.55-0.83,1.35-2.24,1.93-3.45c0.42,0.36,0.47,0.4,0.53,0.44c-0.54,1.14-1.24,2.45-1.76,3.26c0.03,0.05,0.05,0.1,0.05,0.15
		c0,0.05-0.02,0.09-0.05,0.13L142.23,47.23z M142.8,38.13c0.74,0.27,1.65,0.73,2.11,1.1l-0.41,0.59c-0.45-0.38-1.36-0.87-2.1-1.17
		L142.8,38.13z M151.62,42.57v0.68h-4.09l0.38,0.13c-0.03,0.06-0.12,0.11-0.24,0.12c-0.33,0.89-0.86,2.1-1.33,3.04
		c1.1-0.06,2.4-0.13,3.67-0.21c-0.37-0.55-0.8-1.1-1.21-1.58l0.6-0.32c0.83,0.92,1.73,2.18,2.12,3.02l-0.66,0.38
		c-0.11-0.26-0.27-0.57-0.46-0.89c-1.93,0.16-3.96,0.29-5.24,0.38c-0.02,0.08-0.08,0.14-0.16,0.15l-0.29-0.84l0.87-0.04
		c0.48-0.94,1.03-2.29,1.37-3.32h-2.25v-0.68h3.03V40.5h-2.51v-0.67h2.51v-1.77l0.97,0.06c-0.01,0.11-0.11,0.18-0.24,0.2v1.5h2.57
		v0.67h-2.57v2.07H151.62z"/>
	<path d="M157.78,38.47c0,0.08-0.08,0.14-0.22,0.16l-0.02,0.3c0.12,1.48,0.75,6.39,4.75,8.21c-0.2,0.15-0.42,0.4-0.54,0.59
		c-2.84-1.35-4.02-4.21-4.51-6.38h-0.01c-0.44,2.13-1.52,4.87-4.37,6.37c-0.13-0.17-0.35-0.39-0.57-0.54
		c4.38-2.2,4.42-7.37,4.49-8.79L157.78,38.47z"/>
	<path d="M171.98,42.48h-3.47l0.18,0.05c-0.01,0.06-0.1,0.12-0.21,0.13c-0.27,1.9-1.14,3.8-3.25,4.86
		c-0.12-0.14-0.39-0.38-0.57-0.52c2.07-1.03,2.8-2.63,3.04-4.52h-4.02v-0.7h8.3V42.48z M170.43,39.61h-5.84v-0.7h5.84V39.61z
		 M170.57,38.07c0.43,0.45,0.92,1.17,1.16,1.66l-0.42,0.28c-0.22-0.48-0.73-1.23-1.15-1.66L170.57,38.07z M171.81,37.71
		c0.43,0.45,0.94,1.17,1.19,1.65l-0.43,0.26c-0.22-0.46-0.75-1.21-1.16-1.64L171.81,37.71z"/>
	<path d="M181.46,40.81c-0.04,0.05-0.11,0.07-0.18,0.07c-0.05,0-0.09-0.01-0.15-0.02c-0.67,0.67-1.53,1.39-2.31,1.95
		c0.14,0.05,0.2,0.07,0.23,0.09c-0.02,0.04-0.1,0.1-0.18,0.12v4.56h-0.64V43.2c-0.89,0.63-2.32,1.46-3.46,2.01
		c-0.08-0.13-0.25-0.38-0.38-0.49c1.81-0.83,4.52-2.42,6.34-4.42L181.46,40.81z"/>
	<path d="M186.75,46.31c2.67-0.75,4.79-2.03,6.09-4.32c0.14,0.18,0.4,0.4,0.56,0.53c-1.42,2.42-3.76,3.83-6.93,4.66
		c-0.02,0.08-0.08,0.18-0.17,0.21l-0.44-0.74l0.13-0.2V38.7l1.08,0.05c-0.01,0.12-0.11,0.21-0.32,0.23V46.31z"/>
	<path d="M203.01,40.35c-0.04,0.05-0.1,0.11-0.16,0.15c-1.1,3.41-2.83,5.59-5.73,7.07c-0.13-0.18-0.33-0.42-0.54-0.58
		c2.75-1.33,4.46-3.44,5.33-6.22h-3.75c-0.61,0.95-1.42,1.86-2.36,2.6c-0.15-0.15-0.39-0.35-0.6-0.48c1.43-1.1,2.64-2.71,3.35-4.56
		l1,0.28c-0.04,0.11-0.17,0.14-0.31,0.14c-0.21,0.46-0.43,0.9-0.67,1.32h3.7l0.13-0.06L203.01,40.35z"/>
	<path d="M205.83,41.37c0.95,0.21,2.12,0.61,2.83,0.95l-0.32,0.66c-0.69-0.34-1.9-0.76-2.83-0.97L205.83,41.37z M206.46,46.51
		c3.42-1.15,5.75-2.97,7.15-6.12c0.16,0.14,0.48,0.36,0.64,0.46c-1.41,3.12-3.86,5.07-7.08,6.21c0.02,0.09-0.03,0.22-0.13,0.26
		L206.46,46.51z M206.99,38.76c0.95,0.25,2.1,0.67,2.82,1.03l-0.35,0.64c-0.75-0.38-1.84-0.8-2.79-1.06L206.99,38.76z"/>
	<path d="M222.91,41.1v6.39h-0.63v-0.46h-4.72v-0.59h4.72V44.3h-4.3v-0.59h4.3v-2.04h-4.46V41.1H222.91z"/>
	<path d="M227.27,39.2c1.09,0.35,2.36,0.89,3.13,1.43l-0.4,0.66c-0.76-0.54-2-1.09-3.07-1.46L227.27,39.2z M227.23,46.49
		c3.73-1.16,6.21-3.25,7.48-6.16c0.22,0.18,0.46,0.32,0.68,0.43c-1.31,2.88-3.88,5.12-7.44,6.31c-0.01,0.09-0.07,0.2-0.15,0.24
		L227.23,46.49z"/>
	<path d="M245.98,41.51h-2.2v0.73c0,2.01-0.62,4.05-3.36,5.29c-0.14-0.17-0.36-0.38-0.55-0.53c2.67-1.16,3.16-3.03,3.16-4.75v-0.74
		h-3.4v2.62h-0.75v-2.62h-2.06v-0.71h2.06v-2.28l1.01,0.06c-0.01,0.11-0.11,0.2-0.26,0.22v2h3.4v-2.42l1.01,0.06
		c-0.01,0.09-0.1,0.18-0.26,0.2v2.16h2.2V41.51z"/>
	<path d="M250.07,43.01c-0.47,1.23-1.17,2.31-1.98,3.1l-0.61-0.4c0.79-0.74,1.47-1.73,1.9-2.96L250.07,43.01z M252.32,41.39v4.93
		c0,1.15-0.82,1.15-2.5,1.15c-0.04-0.19-0.13-0.48-0.22-0.7c0.3,0.01,0.64,0.01,0.93,0.01h0.61c0.29,0,0.43-0.19,0.43-0.44v-4.94
		h-3.57v-0.71h3.57v-2.22l1,0.05c-0.01,0.11-0.08,0.18-0.24,0.2v1.97h3.55v0.71H252.32z M254.2,42.67c0.77,0.85,1.65,2.09,2.22,3.06
		l-0.67,0.39c-0.51-0.96-1.44-2.31-2.14-3.11L254.2,42.67z M255.57,37.83c0.64,0,1.17,0.53,1.17,1.18c0,0.65-0.53,1.18-1.17,1.18
		c-0.66,0-1.19-0.53-1.19-1.18C254.38,38.33,254.92,37.83,255.57,37.83z M256.39,39c0-0.46-0.37-0.84-0.82-0.84
		c-0.46,0-0.84,0.38-0.84,0.84c0,0.45,0.38,0.83,0.84,0.83C256.04,39.83,256.39,39.43,256.39,39z"/>
	<path d="M258.01,42.38h8.78v0.75h-8.38c-0.06,0.11-0.2,0.18-0.34,0.2L258.01,42.38z"/>
	<path d="M275.94,43.95c-1.07-0.58-2.54-1.26-3.69-1.71v5.26h-0.79v-9.14l1.06,0.06c-0.01,0.12-0.1,0.19-0.27,0.22v3.07l0.16-0.22
		c1.23,0.45,2.86,1.18,3.95,1.76L275.94,43.95z"/>
	<path d="M281.93,41.56h-1.28v6.26h-0.68v-6.26h-1.36V40.9h1.36v-2.84l0.88,0.05c-0.01,0.07-0.06,0.13-0.2,0.15v2.64h1.28V41.56z
		 M284.23,43.66l0.34,0.03c-0.03,0.21-0.05,3.39-0.42,3.86c-0.17,0.21-0.29,0.29-1.29,0.26c-0.01-0.18-0.06-0.43-0.16-0.58
		c0.3,0.02,0.56,0.03,0.68,0.03c0.12,0,0.19-0.02,0.25-0.12c0.15-0.18,0.23-0.9,0.3-2.9H283c-0.17,1.43-0.57,2.73-1.55,3.59
		c-0.08-0.14-0.26-0.34-0.41-0.43c0.84-0.73,1.19-1.85,1.34-3.15h-1.06v-0.58h1.11c0.03-0.37,0.04-0.75,0.05-1.12l0.82,0.06
		c-0.01,0.08-0.08,0.13-0.2,0.15c-0.01,0.3-0.03,0.61-0.05,0.92h1.04L284.23,43.66z M287.69,39.3c-0.01,0.06-0.02,0.14-0.04,0.21
		c-0.23,2.71-0.4,2.78-1.53,2.78c-0.2,0-0.44,0-0.68-0.02c-0.02-0.19-0.08-0.44-0.19-0.61c0.45,0.04,0.86,0.05,1.03,0.05
		c0.16,0,0.24-0.02,0.33-0.09c0.16-0.15,0.26-0.62,0.37-1.78h-2.06c-0.36,1.16-1.09,2.06-2.66,2.64c-0.07-0.16-0.24-0.38-0.37-0.49
		c1.35-0.46,2.01-1.18,2.34-2.15h-1.93v-0.59h2.09c0.07-0.37,0.12-0.77,0.14-1.2l0.87,0.06c-0.01,0.08-0.08,0.14-0.21,0.16
		c-0.03,0.34-0.07,0.66-0.13,0.98h2.1l0.16-0.02L287.69,39.3z M287.79,43.67l0.34,0.01c-0.04,0.24,0,3.42-0.35,3.86
		c-0.17,0.24-0.33,0.3-1.38,0.27c-0.02-0.19-0.08-0.43-0.17-0.6c0.35,0.03,0.64,0.03,0.77,0.03c0.12,0,0.19-0.01,0.25-0.1
		c0.13-0.17,0.19-0.89,0.24-2.89h-1c-0.18,1.44-0.6,2.73-1.61,3.59c-0.1-0.15-0.27-0.35-0.42-0.45c0.88-0.71,1.25-1.83,1.41-3.13
		h-1.01v-0.58h1.06c0.03-0.37,0.04-0.74,0.05-1.12l0.84,0.06c-0.02,0.08-0.08,0.13-0.21,0.15c-0.01,0.3-0.03,0.61-0.05,0.92H287.79z
		"/>
	<path d="M294.64,38.09c-0.03,0.08-0.12,0.14-0.22,0.16c1.03,1.43,2.93,2.84,4.58,3.55c-0.17,0.17-0.34,0.42-0.45,0.63
		c-1.67-0.82-3.56-2.26-4.57-3.68c-0.87,1.3-2.63,2.8-4.47,3.72c-0.08-0.15-0.26-0.42-0.41-0.57c1.85-0.89,3.67-2.47,4.5-3.88
		L294.64,38.09z M289.64,44.09v-0.67h8.82v0.67h-5.06l0.13,0.04c-0.03,0.07-0.12,0.11-0.25,0.12c-0.32,0.71-0.79,1.66-1.24,2.44
		c1.4-0.03,3.03-0.08,4.63-0.14c-0.47-0.55-1.02-1.11-1.55-1.58l0.6-0.33c0.99,0.85,2.05,2.01,2.54,2.81l-0.63,0.4
		c-0.14-0.22-0.3-0.47-0.51-0.74c-2.56,0.14-5.27,0.25-6.95,0.3c-0.02,0.1-0.08,0.14-0.17,0.15l-0.26-0.84
		c0.44,0,0.96-0.01,1.53-0.03c0.43-0.76,0.93-1.79,1.25-2.61H289.64z M291.44,41.38h5.1v0.66h-5.1V41.38z"/>
</g>
<path d="M-0.52,49.31V1.64h9.94c3.86,0,6.79,1.05,8.79,3.16c2,2.11,3,5.09,3,8.95v22.71c0,4.39-1.06,7.63-3.19,9.71
	c-2.13,2.09-5.19,3.13-9.18,3.13H-0.52z M6.2,7.96v35.02H9.3c1.89,0,3.23-0.47,4.02-1.42c0.79-0.94,1.19-2.43,1.19-4.44V13.76
	c0-1.84-0.37-3.27-1.12-4.28c-0.75-1.01-2.11-1.51-4.08-1.51H6.2z"/>
<path d="M27.14,49.31V18.24h6.72v31.07H27.14z"/>
<path class="st0" d="M33.86,7.75v7.93h-6.72"/>
<path d="M61.51,15.53h-6.72v-1.51c0-1.54-0.36-2.86-1.09-3.98c-0.72-1.12-1.94-1.68-3.65-1.68c-0.92,0-1.67,0.18-2.24,0.53
	c-0.57,0.35-1.03,0.79-1.38,1.32c-0.35,0.57-0.59,1.22-0.72,1.94c-0.13,0.72-0.2,1.48-0.2,2.27c0,0.92,0.03,1.69,0.1,2.3
	c0.07,0.61,0.23,1.16,0.49,1.65c0.26,0.48,0.65,0.9,1.15,1.25c0.5,0.35,1.2,0.7,2.07,1.05l5.14,2.04c1.49,0.57,2.7,1.24,3.62,2.01
	c0.92,0.77,1.65,1.66,2.17,2.67c0.48,1.05,0.81,2.25,0.99,3.59c0.18,1.34,0.26,2.86,0.26,4.58c0,1.97-0.2,3.81-0.59,5.5
	c-0.4,1.69-1.03,3.13-1.91,4.31c-0.92,1.23-2.13,2.2-3.62,2.9c-1.49,0.7-3.31,1.05-5.46,1.05c-1.62,0-3.14-0.29-4.54-0.86
	c-1.41-0.57-2.61-1.36-3.62-2.37c-1.01-1.01-1.81-2.18-2.4-3.52c-0.59-1.34-0.89-2.8-0.89-4.38v-2.5h6.72v2.11
	c0,1.23,0.36,2.34,1.09,3.33c0.72,0.99,1.94,1.48,3.65,1.48c1.14,0,2.03-0.16,2.67-0.49c0.64-0.33,1.13-0.8,1.48-1.42
	c0.35-0.61,0.56-1.35,0.63-2.21c0.07-0.86,0.1-1.81,0.1-2.86c0-1.23-0.04-2.24-0.13-3.03c-0.09-0.79-0.26-1.43-0.53-1.91
	c-0.31-0.48-0.71-0.88-1.22-1.18c-0.51-0.31-1.17-0.64-2.01-0.99l-4.81-1.98c-2.9-1.19-4.84-2.75-5.83-4.71
	c-0.99-1.95-1.48-4.4-1.48-7.34c0-1.75,0.24-3.42,0.72-5C40,7.9,40.72,6.54,41.69,5.39c0.92-1.14,2.1-2.05,3.52-2.73
	c1.43-0.68,3.13-1.02,5.1-1.02c1.67,0,3.19,0.31,4.58,0.92c1.38,0.61,2.58,1.43,3.59,2.44c2.02,2.11,3.03,4.52,3.03,7.24V15.53z"/>
<path d="M63.48,49.27L73.95,1.64h5.6l10.47,47.63H83.3L81.33,39.2h-9.15L70.2,49.27H63.48z M80.08,32.88l-3.29-16.99h-0.13
	l-3.29,16.99H80.08z"/>
</svg>
