<?xml version="1.0" encoding="UTF-8"?> <svg xmlns="http://www.w3.org/2000/svg" width="200" height="62" viewBox="0 0 200 62" fill="none"><path d="M65.5651 20.2293C63.2657 20.2293 61.3984 22.0806 61.3984 24.3603V47.3309C61.3984 49.6105 63.2657 51.4618 65.5651 51.4618C67.8644 51.4618 69.7317 49.6105 69.7317 47.3309V24.3603C69.7317 22.0806 67.8644 20.2293 65.5651 20.2293Z" fill="#00A8B0"></path><path d="M105.759 23.5472C105.737 23.4237 105.686 23.3076 105.649 23.1842C105.605 23.0462 105.576 22.9083 105.525 22.7776C105.466 22.6324 105.386 22.5017 105.305 22.3711C105.246 22.2694 105.202 22.1678 105.144 22.0734C104.836 21.6233 104.448 21.2312 103.987 20.9263C103.892 20.861 103.789 20.8247 103.694 20.7666C103.555 20.6867 103.423 20.6069 103.277 20.5488C103.145 20.498 103.006 20.4617 102.874 20.4254C102.749 20.3891 102.632 20.3383 102.5 20.3165C102.244 20.2657 101.981 20.2439 101.717 20.2366C101.702 20.2366 101.695 20.2366 101.68 20.2366C101.666 20.2366 101.658 20.2366 101.644 20.2366C101.38 20.2366 101.124 20.2657 100.86 20.3165C100.728 20.3383 100.611 20.3891 100.487 20.4254C100.348 20.4689 100.216 20.498 100.084 20.5488C99.9375 20.6069 99.8056 20.6867 99.6738 20.7666C99.5713 20.8247 99.4688 20.8682 99.3663 20.9336C99.1393 21.086 98.9269 21.253 98.7292 21.449L90.7767 29.3334L82.8242 21.449C82.6265 21.253 82.4142 21.0788 82.1872 20.9263C82.092 20.861 81.9894 20.8174 81.8869 20.7666C81.7478 20.694 81.616 20.6069 81.4695 20.5488C81.3377 20.4907 81.1986 20.4617 81.0595 20.4254C80.935 20.3891 80.8178 20.3455 80.6933 20.3165C80.1588 20.2076 79.6022 20.2076 79.0604 20.3165C78.9359 20.3383 78.8187 20.3891 78.6942 20.4254C78.5551 20.4689 78.416 20.498 78.2841 20.5488C78.1377 20.6069 78.0059 20.694 77.8668 20.7666C77.7716 20.8174 77.669 20.861 77.5738 20.9263C77.1125 21.2312 76.7244 21.616 76.4168 22.0734C76.3509 22.1678 76.307 22.2767 76.2558 22.3711C76.1825 22.509 76.102 22.6397 76.0361 22.7776C75.9775 22.9083 75.9482 23.0535 75.9043 23.1914C75.8676 23.3076 75.8237 23.4237 75.7944 23.5472C75.7432 23.8158 75.7139 24.0844 75.7139 24.353V47.3236C75.7139 49.6033 77.5812 51.4546 79.8805 51.4546C82.1798 51.4546 84.0471 49.6033 84.0471 47.3236V34.321L87.8403 38.0817C88.6531 38.8875 89.7223 39.2941 90.784 39.2941C91.0477 39.2941 91.3186 39.2723 91.5822 39.2215C92.3731 39.069 93.12 38.6915 93.7278 38.0889L97.521 34.3283V47.3309C97.521 49.6105 99.3883 51.4618 101.688 51.4618C103.987 51.4618 105.854 49.6105 105.854 47.3309V24.3603C105.854 24.0917 105.825 23.823 105.774 23.5617L105.759 23.5472Z" fill="#00A8B0"></path><path d="M156.389 37.8348L160.929 33.3336C162.554 31.7219 162.554 29.1083 160.929 27.4966C159.303 25.8849 156.667 25.8849 155.041 27.4966L150.501 31.9978L150.047 31.5477V24.353C150.047 22.0734 148.18 20.2221 145.881 20.2221C143.581 20.2221 141.714 22.0734 141.714 24.353V47.3236C141.714 49.6033 143.581 51.4546 145.881 51.4546C148.18 51.4546 150.047 49.6033 150.047 47.3236V43.2217L157.128 50.2421C157.941 51.048 159.01 51.4546 160.072 51.4546C161.134 51.4546 162.203 51.048 163.016 50.2421C164.641 48.6304 164.641 46.0168 163.016 44.4051L156.389 37.8348Z" fill="#00A8B0"></path><path d="M185.833 43.1927H177.192V39.9693H183.109C185.408 39.9693 187.276 38.118 187.276 35.8383C187.276 33.5587 185.408 31.7074 183.109 31.7074H177.192V28.4839H185.833C188.132 28.4839 190 26.6327 190 24.353C190 22.0734 188.132 20.2221 185.833 20.2221H173.033C170.734 20.2221 168.866 22.0734 168.866 24.353C168.866 24.353 168.866 24.3603 168.866 24.3675V47.3091C168.866 47.3091 168.866 47.3164 168.866 47.3236C168.866 49.6033 170.734 51.4546 173.033 51.4546H185.833C188.132 51.4546 190 49.6033 190 47.3236C190 45.044 188.132 43.1927 185.833 43.1927Z" fill="#00A8B0"></path><path d="M123.78 20.2293C118.457 20.2293 113.939 23.6996 112.393 28.4839C112.042 29.0865 111.822 29.7835 111.822 30.5313V47.0405C111.822 49.3201 113.69 51.1714 115.989 51.1714C118.288 51.1714 120.156 49.3201 120.156 47.0405V43.3742C121.298 43.7372 122.521 43.9332 123.78 43.9332C125.04 43.9332 126.263 43.7372 127.405 43.3742V47.3236C127.405 49.6033 129.272 51.4546 131.572 51.4546C133.871 51.4546 135.738 49.6033 135.738 47.3236V30.8144C135.738 30.1828 135.585 29.5947 135.328 29.0575C133.974 23.9828 129.316 20.2293 123.78 20.2293ZM123.78 35.6786C121.781 35.6786 120.156 34.0669 120.156 32.0849C120.156 30.1029 121.781 28.4912 123.78 28.4912C125.779 28.4912 127.405 30.1029 127.405 32.0849C127.405 34.0669 125.779 35.6786 123.78 35.6786Z" fill="#00A8B0"></path><path d="M44.8416 14.356C46.2695 14.356 47.4265 15.5031 47.4265 16.9188V44.543C47.4265 45.9587 46.2695 47.1058 44.8416 47.1058H16.9786C15.5506 47.1058 14.3936 45.9587 14.3936 44.543V16.9115C14.3936 15.4958 15.5506 14.3487 16.9786 14.3487H44.8416M45.713 10H16.0998C12.7314 10 10 12.708 10 16.0476V45.407C10 48.7466 12.7314 51.4545 16.0998 51.4545H45.713C49.0814 51.4545 51.8128 48.7466 51.8128 45.407V16.0476C51.8128 12.708 49.0814 10 45.713 10Z" fill="url(#paint0_linear_2816_4251)"></path><path d="M35.0589 23.3439C35.0589 25.6162 33.1989 27.4603 30.9069 27.4603C28.6149 27.4603 26.7549 25.6162 26.7549 23.3439C26.7549 21.0715 28.6149 19.2275 30.9069 19.2275C33.1989 19.2275 35.0589 21.0715 35.0589 23.3439Z" fill="url(#paint1_linear_2816_4251)"></path><path d="M23.0711 32.4406L21.6358 33.8636L20.1347 35.3519L10.8275 44.5793L10.022 45.3779C10.0073 45.2109 10 45.0367 10 44.8697V39.5845L10.0806 39.5046L10.7323 38.8585L18.3699 31.2863L18.6994 30.9596C18.6994 30.9596 18.7214 30.9378 18.7287 30.9305C18.7726 30.887 18.8239 30.8434 18.8751 30.7999C19.2193 30.524 19.6294 30.3788 20.0468 30.357H20.1054C20.6399 30.357 21.1672 30.553 21.5699 30.9596L23.0711 32.4479V32.4406Z" fill="url(#paint2_linear_2816_4251)"></path><path d="M51.8128 38.0454V43.8679L51.7103 43.7662L49.8723 41.944L46.6869 38.7859L43.3331 35.4608L40.9532 33.1013C40.8433 32.9779 40.7335 32.8617 40.609 32.7383C39.3642 31.5041 37.8557 30.7926 36.4717 30.6765L38.6099 28.5566L38.9907 28.179C39.3861 27.787 39.8987 27.5837 40.4186 27.5765H40.4333C40.9459 27.591 41.4585 27.7943 41.8466 28.179L51.3588 37.6098L51.7982 38.0454H51.8128Z" fill="url(#paint3_linear_2816_4251)"></path><path d="M40.4255 32.5858L34.5893 38.3721L30.3641 42.5611C29.976 42.9458 29.4781 43.1491 28.9655 43.1637C28.9069 43.1637 28.8483 43.1637 28.797 43.1637C28.2918 43.1491 27.7865 42.9458 27.3984 42.5611L24.8428 40.0273C25.9412 40.1653 27.3545 39.628 28.5408 38.5463L28.8849 38.2051L28.9581 38.1325L30.1151 36.9854L32.6781 34.4444L36.4713 30.6837C37.8479 30.7999 39.1807 31.3516 40.4255 32.5858Z" fill="url(#paint4_linear_2816_4251)"></path><path d="M28.8849 38.205L28.5407 38.5463C27.3544 39.628 25.9485 40.1652 24.8427 40.0273L24.3594 39.5481L23.0853 38.2849L22.1846 37.3919L23.5979 35.9907L25.121 34.4807L28.8775 38.205H28.8849Z" fill="url(#paint5_linear_2816_4251)"></path><defs><linearGradient id="paint0_linear_2816_4251" x1="30.9064" y1="34.5968" x2="30.9064" y2="21.4635" gradientUnits="userSpaceOnUse"><stop stop-color="#00A8B0"></stop><stop offset="1" stop-color="#5BBFB6"></stop></linearGradient><linearGradient id="paint1_linear_2816_4251" x1="32.9865" y1="26.9085" x2="28.8879" y2="19.7487" gradientUnits="userSpaceOnUse"><stop stop-color="#00A8B0"></stop><stop offset="1" stop-color="#5BBFB6"></stop></linearGradient><linearGradient id="paint2_linear_2816_4251" x1="10" y1="37.8638" x2="23.0711" y2="37.8638" gradientUnits="userSpaceOnUse"><stop stop-color="#00A8B0"></stop><stop offset="1" stop-color="#5BBFB6"></stop></linearGradient><linearGradient id="paint3_linear_2816_4251" x1="51.9226" y1="41.3777" x2="38.7108" y2="28.7843" gradientUnits="userSpaceOnUse"><stop stop-color="#00A8B0"></stop><stop offset="1" stop-color="#5BBFB6"></stop></linearGradient><linearGradient id="paint4_linear_2816_4251" x1="27.4936" y1="41.3922" x2="38.6394" y2="31.9614" gradientUnits="userSpaceOnUse"><stop stop-color="#5BBFB6"></stop><stop offset="0.43" stop-color="#59BEB5"></stop><stop offset="0.59" stop-color="#52BCB5"></stop><stop offset="0.7" stop-color="#46B9B4"></stop><stop offset="0.8" stop-color="#35B5B3"></stop><stop offset="0.88" stop-color="#1FAFB2"></stop><stop offset="0.95" stop-color="#04A9B0"></stop><stop offset="0.96" stop-color="#00A8B0"></stop></linearGradient><linearGradient id="paint5_linear_2816_4251" x1="28.3283" y1="39.1634" x2="23.7276" y2="36.4865" gradientUnits="userSpaceOnUse"><stop stop-color="#00A8B0"></stop><stop offset="1" stop-color="#5BBFB6"></stop></linearGradient></defs></svg> 