<?xml version="1.0" encoding="UTF-8"?> <svg xmlns="http://www.w3.org/2000/svg" id="_イヤー_1" viewBox="0 0 299.52 47.67"><defs><style>.cls-1{fill:#438093;}</style></defs><g><path d="M100.71,18.89h3.89c1.5,.01,2.63,.66,3.39,1.94,.27,.43,.44,.88,.51,1.35,.06,.47,.08,1.29,.08,2.45,0,1.23-.04,2.09-.13,2.58-.04,.25-.1,.47-.18,.66-.09,.19-.19,.39-.31,.59-.33,.54-.78,.99-1.36,1.34-.57,.38-1.28,.57-2.11,.57h-3.77v-11.47Zm1.68,9.84h2.01c.95,0,1.63-.33,2.06-1,.19-.25,.31-.56,.36-.94,.05-.37,.07-1.07,.07-2.1s-.02-1.71-.07-2.14c-.06-.43-.21-.78-.43-1.05-.47-.67-1.13-.99-1.98-.97h-2.01v8.2Z"></path><path d="M110.76,18.89h1.59v1.64h-1.59v-1.64Zm0,3.31h1.59v8.17h-1.59v-8.17Z"></path><path d="M114.58,22.2h1.59v.87h.03c.52-.65,1.21-.97,2.06-.97,.64,.01,1.19,.22,1.66,.63l-1.16,1.42c-.34-.27-.68-.41-1.05-.41-.41,0-.76,.14-1.05,.41-.33,.27-.49,.7-.5,1.3v4.93h-1.59v-8.17Z"></path><path d="M122.05,26.91c0,.66,.18,1.16,.55,1.5,.34,.35,.79,.52,1.34,.52,.65,0,1.22-.26,1.73-.8l1.15,1.02c-.81,.89-1.76,1.33-2.85,1.32-.42,0-.82-.06-1.22-.19-.2-.07-.39-.16-.58-.28-.2-.1-.38-.22-.56-.37-.34-.3-.61-.73-.82-1.27-.23-.52-.34-1.21-.34-2.05s.1-1.48,.3-2.02c.2-.55,.45-.98,.76-1.29,.32-.32,.67-.55,1.06-.69,.39-.14,.77-.21,1.14-.21,.9,.01,1.67,.32,2.29,.92,.64,.61,.96,1.46,.97,2.53v1.35h-4.93Zm3.35-1.35c-.02-.64-.19-1.12-.5-1.45-.31-.31-.7-.47-1.18-.47s-.87,.16-1.18,.47c-.3,.33-.47,.81-.5,1.45h3.35Z"></path><path d="M134.73,29.05c-.35,.41-.75,.74-1.22,.99-.47,.27-1.01,.4-1.62,.41-.93,0-1.75-.33-2.46-.98-.73-.66-1.11-1.72-1.13-3.19,.02-1.48,.4-2.56,1.13-3.23,.71-.66,1.53-.98,2.46-.97,.61,.01,1.16,.14,1.62,.39,.47,.26,.87,.6,1.22,1.03l-1.17,1.08c-.4-.55-.94-.84-1.61-.86-1.35-.02-2.04,.83-2.06,2.56,.02,1.72,.71,2.56,2.06,2.53,.67-.01,1.21-.29,1.61-.85l1.17,1.08Z"></path><path d="M136.16,19.71h1.59v2.49h1.16v1.26h-1.16v4.76c-.01,.41,.18,.62,.56,.61h.59v1.54h-.83c-.56,0-1.01-.18-1.37-.54-.37-.34-.55-.83-.55-1.48v-4.9h-.8v-1.26h.8v-2.49Z"></path><path d="M140.59,18.89h1.59v1.64h-1.59v-1.64Zm0,3.31h1.59v8.17h-1.59v-8.17Z"></path><path d="M144.01,26.28c0-.86,.07-1.52,.21-1.99,.14-.45,.36-.83,.66-1.14,.22-.27,.52-.51,.91-.73,.39-.2,.88-.31,1.49-.32,.62,.01,1.13,.12,1.52,.32,.38,.22,.68,.46,.88,.73,.31,.31,.54,.69,.67,1.14,.13,.46,.19,1.12,.19,1.98s-.06,1.52-.19,1.97c-.13,.45-.36,.84-.67,1.17-.1,.12-.23,.24-.37,.35-.13,.13-.3,.24-.51,.34-.39,.23-.89,.34-1.52,.35-.6-.01-1.1-.13-1.49-.35-.39-.2-.7-.44-.91-.69-.29-.33-.51-.72-.65-1.17-.14-.45-.21-1.11-.21-1.97Zm4.93,.02c0-.58-.03-1.01-.08-1.28-.05-.26-.16-.48-.31-.68-.12-.18-.29-.33-.52-.43-.22-.11-.47-.17-.76-.17-.27,0-.52,.05-.75,.17-.22,.1-.4,.25-.53,.43-.14,.19-.24,.42-.3,.68-.06,.27-.09,.69-.09,1.26s.03,.98,.09,1.25c.06,.27,.16,.51,.3,.71,.14,.16,.32,.3,.53,.42,.23,.12,.48,.17,.75,.17,.29,0,.54-.06,.76-.17,.23-.12,.4-.26,.52-.42,.16-.21,.26-.44,.31-.71,.05-.26,.08-.67,.08-1.23Z"></path><path d="M152.47,22.2h1.59v.87h.03c.52-.65,1.21-.97,2.06-.97,.65,0,1.25,.24,1.8,.72,.54,.48,.82,1.19,.85,2.12v5.43h-1.59v-4.87c0-.57-.15-1.01-.44-1.31-.29-.3-.66-.46-1.12-.46s-.83,.15-1.13,.46c-.3,.3-.45,.74-.45,1.31v4.87h-1.59v-8.17Z"></path><path d="M165.27,27.59c.89,.75,1.94,1.13,3.16,1.14,1.44-.02,2.18-.55,2.2-1.6,.01-.86-.47-1.37-1.45-1.54-.45-.06-.94-.13-1.47-.21-.96-.16-1.68-.53-2.18-1.09-.51-.58-.77-1.29-.77-2.13,0-1,.32-1.81,.97-2.43,.62-.61,1.51-.92,2.66-.93,1.38,.03,2.58,.43,3.6,1.18l-.94,1.43c-.83-.57-1.75-.86-2.75-.88-.52,0-.95,.13-1.3,.4-.36,.28-.55,.69-.56,1.24,0,.33,.12,.63,.37,.9,.25,.27,.65,.46,1.2,.57,.3,.05,.72,.11,1.25,.18,1.04,.15,1.81,.53,2.31,1.16,.49,.61,.74,1.33,.74,2.14-.06,2.2-1.36,3.31-3.9,3.34-1.65,0-3.06-.52-4.24-1.57l1.1-1.31Z"></path><path d="M174.23,22.2h1.59v4.87c0,.55,.15,.98,.45,1.29,.29,.31,.67,.46,1.13,.46s.83-.15,1.12-.46c.3-.31,.44-.74,.44-1.29v-4.87h1.59v8.17h-1.59v-.87h-.03c-.52,.64-1.21,.97-2.05,.97-.65-.01-1.25-.26-1.77-.74-.57-.47-.87-1.17-.88-2.09v-5.44Z"></path><path d="M182.89,22.2h1.59v.85c.53-.61,1.21-.93,2.04-.95,.97,.03,1.68,.38,2.13,1.07,.22,.26,.37,.59,.45,1.02,.08,.41,.11,1.12,.11,2.11s-.04,1.66-.11,2.08c-.08,.42-.23,.76-.45,1.03-.22,.32-.51,.57-.86,.76-.35,.19-.77,.3-1.26,.31-.41,0-.77-.09-1.09-.27-.35-.17-.66-.4-.95-.69v4.17h-1.59v-11.47Zm3.15,6.63c.38,0,.67-.07,.89-.22,.22-.15,.37-.35,.47-.58,.1-.25,.17-.52,.21-.82,.01-.29,.02-.6,.02-.91,0-.33,0-.64-.02-.96-.04-.31-.1-.58-.21-.82-.09-.25-.25-.44-.47-.58-.22-.13-.52-.2-.89-.2-.36,0-.64,.08-.85,.23-.22,.15-.38,.35-.48,.6-.1,.25-.16,.52-.19,.81-.03,.31-.05,.61-.05,.92,0,.29,.02,.58,.05,.87,.03,.31,.09,.58,.19,.83,.1,.25,.26,.45,.48,.6,.21,.16,.49,.24,.85,.24Z"></path><path d="M191.26,22.2h1.59v.85c.53-.61,1.21-.93,2.04-.95,.97,.03,1.68,.38,2.13,1.07,.22,.26,.37,.59,.45,1.02,.08,.41,.11,1.12,.11,2.11s-.04,1.66-.11,2.08c-.08,.42-.23,.76-.45,1.03-.22,.32-.51,.57-.86,.76-.35,.19-.77,.3-1.26,.31-.41,0-.77-.09-1.09-.27-.35-.17-.66-.4-.95-.69v4.17h-1.59v-11.47Zm3.15,6.63c.38,0,.67-.07,.89-.22,.22-.15,.37-.35,.47-.58,.1-.25,.17-.52,.21-.82,.01-.29,.02-.6,.02-.91,0-.33,0-.64-.02-.96-.04-.31-.1-.58-.21-.82-.09-.25-.25-.44-.47-.58-.22-.13-.52-.2-.89-.2-.36,0-.64,.08-.85,.23-.22,.15-.38,.35-.48,.6-.1,.25-.16,.52-.19,.81-.03,.31-.05,.61-.05,.92,0,.29,.02,.58,.05,.87,.03,.31,.09,.58,.19,.83,.1,.25,.26,.45,.48,.6,.21,.16,.49,.24,.85,.24Z"></path><path d="M199.23,26.28c0-.86,.07-1.52,.21-1.99,.14-.45,.36-.83,.66-1.14,.22-.27,.52-.51,.91-.73,.39-.2,.88-.31,1.49-.32,.62,.01,1.13,.12,1.52,.32,.38,.22,.68,.46,.88,.73,.31,.31,.54,.69,.67,1.14,.13,.46,.19,1.12,.19,1.98s-.06,1.52-.19,1.97c-.13,.45-.36,.84-.67,1.17-.1,.12-.23,.24-.37,.35-.13,.13-.3,.24-.51,.34-.39,.23-.89,.34-1.52,.35-.6-.01-1.1-.13-1.49-.35-.39-.2-.7-.44-.91-.69-.29-.33-.51-.72-.65-1.17-.14-.45-.21-1.11-.21-1.97Zm4.93,.02c0-.58-.02-1.01-.08-1.28-.05-.26-.16-.48-.31-.68-.12-.18-.29-.33-.52-.43-.22-.11-.47-.17-.76-.17-.27,0-.52,.05-.75,.17-.22,.1-.4,.25-.53,.43-.14,.19-.24,.42-.3,.68-.06,.27-.09,.69-.09,1.26s.03,.98,.09,1.25c.06,.27,.16,.51,.3,.71,.14,.16,.32,.3,.53,.42,.23,.12,.48,.17,.75,.17,.29,0,.54-.06,.76-.17,.23-.12,.4-.26,.52-.42,.16-.21,.26-.44,.31-.71,.05-.26,.08-.67,.08-1.23Z"></path><path d="M207.68,22.2h1.59v.87h.03c.52-.65,1.21-.97,2.06-.97,.64,.01,1.19,.22,1.66,.63l-1.16,1.42c-.34-.27-.68-.41-1.05-.41-.41,0-.76,.14-1.05,.41-.33,.27-.49,.7-.5,1.3v4.93h-1.59v-8.17Z"></path><path d="M214.05,19.71h1.59v2.49h1.16v1.26h-1.16v4.76c-.01,.41,.18,.62,.56,.61h.59v1.54h-.83c-.56,0-1.01-.18-1.37-.54-.36-.34-.55-.83-.55-1.48v-4.9h-.8v-1.26h.8v-2.49Z"></path><path d="M228.13,27.8h-4.21l-.85,2.57h-1.78l4.04-11.47h1.41l4.04,11.47h-1.78l-.86-2.57Zm-.48-1.54l-1.61-5.02h-.03l-1.61,5.02h3.25Z"></path><path d="M232.36,27.87c.65,.7,1.48,1.05,2.51,1.05,.46,0,.83-.09,1.12-.27,.29-.18,.44-.44,.44-.77,0-.29-.09-.5-.26-.61-.18-.12-.42-.19-.71-.2l-1.4-.13c-.67-.06-1.21-.29-1.63-.69-.43-.39-.65-.93-.66-1.63,.01-.84,.3-1.47,.86-1.89,.55-.42,1.25-.63,2.09-.63,.37,0,.69,.02,.98,.07,.29,.05,.56,.13,.82,.22,.49,.2,.93,.48,1.31,.83l-.99,1.19c-.31-.23-.63-.42-.97-.56-.34-.13-.72-.2-1.16-.2-.5,0-.85,.09-1.05,.28-.21,.18-.31,.42-.31,.71-.01,.18,.07,.34,.24,.48,.15,.15,.42,.25,.81,.29l1.31,.1c.83,.06,1.42,.32,1.79,.77,.34,.44,.51,1,.51,1.68,0,.79-.32,1.41-.94,1.84-.61,.44-1.39,.67-2.34,.68-1.29,0-2.45-.49-3.48-1.46l1.11-1.13Z"></path><path d="M240.09,27.87c.65,.7,1.48,1.05,2.51,1.05,.46,0,.83-.09,1.12-.27,.29-.18,.44-.44,.44-.77,0-.29-.09-.5-.26-.61-.18-.12-.42-.19-.71-.2l-1.4-.13c-.67-.06-1.21-.29-1.63-.69-.43-.39-.65-.93-.66-1.63,.01-.84,.3-1.47,.86-1.89,.55-.42,1.25-.63,2.09-.63,.37,0,.69,.02,.98,.07,.29,.05,.56,.13,.82,.22,.49,.2,.93,.48,1.31,.83l-.99,1.19c-.31-.23-.63-.42-.97-.56-.34-.13-.72-.2-1.16-.2-.5,0-.85,.09-1.05,.28-.21,.18-.31,.42-.31,.71-.01,.18,.07,.34,.24,.48,.15,.15,.42,.25,.81,.29l1.31,.1c.83,.06,1.42,.32,1.79,.77,.34,.44,.51,1,.51,1.68,0,.79-.32,1.41-.94,1.84-.61,.44-1.39,.67-2.34,.68-1.29,0-2.45-.49-3.48-1.46l1.11-1.13Z"></path><path d="M247.2,26.28c0-.86,.07-1.52,.21-1.99,.14-.45,.36-.83,.66-1.14,.22-.27,.52-.51,.91-.73,.39-.2,.88-.31,1.49-.32,.62,.01,1.13,.12,1.52,.32,.38,.22,.68,.46,.88,.73,.31,.31,.54,.69,.67,1.14,.13,.46,.19,1.12,.19,1.98s-.06,1.52-.19,1.97c-.13,.45-.36,.84-.67,1.17-.1,.12-.23,.24-.37,.35-.13,.13-.3,.24-.51,.34-.39,.23-.89,.34-1.52,.35-.6-.01-1.1-.13-1.49-.35-.39-.2-.7-.44-.91-.69-.29-.33-.51-.72-.65-1.17-.14-.45-.21-1.11-.21-1.97Zm4.93,.02c0-.58-.02-1.01-.08-1.28-.05-.26-.16-.48-.31-.68-.12-.18-.29-.33-.52-.43-.22-.11-.47-.17-.76-.17-.27,0-.52,.05-.75,.17-.22,.1-.4,.25-.53,.43-.14,.19-.24,.42-.3,.68-.06,.27-.09,.69-.09,1.26s.03,.98,.09,1.25c.06,.27,.16,.51,.3,.71,.14,.16,.32,.3,.53,.42,.23,.12,.48,.17,.75,.17,.29,0,.54-.06,.76-.17,.23-.12,.4-.26,.52-.42,.16-.21,.26-.44,.31-.71,.05-.26,.08-.67,.08-1.23Z"></path><path d="M261.48,29.05c-.35,.41-.75,.74-1.22,.99-.47,.27-1.01,.4-1.62,.41-.93,0-1.75-.33-2.46-.98-.73-.66-1.11-1.72-1.13-3.19,.02-1.48,.4-2.56,1.13-3.23,.71-.66,1.53-.98,2.46-.97,.61,.01,1.16,.14,1.62,.39,.47,.26,.87,.6,1.22,1.03l-1.17,1.08c-.4-.55-.94-.84-1.61-.86-1.35-.02-2.04,.83-2.06,2.56,.02,1.72,.71,2.56,2.06,2.53,.67-.01,1.21-.29,1.61-.85l1.17,1.08Z"></path><path d="M262.85,18.89h1.59v1.64h-1.59v-1.64Zm0,3.31h1.59v8.17h-1.59v-8.17Z"></path><path d="M270.83,29.65h-.03c-.15,.28-.38,.48-.69,.61-.3,.14-.73,.2-1.26,.2-.88-.01-1.56-.25-2.04-.72-.5-.46-.75-1.05-.75-1.77s.22-1.26,.65-1.71c.44-.46,1.08-.7,1.92-.71h2.2v-.86c.01-.72-.53-1.07-1.62-1.05-.4,0-.71,.04-.94,.13-.24,.1-.43,.27-.56,.51l-1.25-.98c.6-.81,1.5-1.21,2.67-1.19,.99-.01,1.79,.18,2.38,.58,.59,.41,.9,1.11,.91,2.11v5.58h-1.59v-.72Zm0-2.74h-1.91c-.93,.02-1.39,.35-1.37,.98,0,.28,.12,.51,.36,.71,.23,.22,.61,.32,1.14,.32,.67,.01,1.14-.07,1.41-.24,.25-.17,.37-.57,.37-1.18v-.59Z"></path><path d="M274.82,19.71h1.59v2.49h1.16v1.26h-1.16v4.76c-.01,.41,.18,.62,.56,.61h.59v1.54h-.83c-.56,0-1.01-.18-1.37-.54-.36-.34-.55-.83-.55-1.48v-4.9h-.8v-1.26h.8v-2.49Z"></path><path d="M279.26,18.89h1.59v1.64h-1.59v-1.64Zm0,3.31h1.59v8.17h-1.59v-8.17Z"></path><path d="M282.68,26.28c0-.86,.07-1.52,.21-1.99,.14-.45,.36-.83,.66-1.14,.22-.27,.52-.51,.91-.73,.39-.2,.88-.31,1.49-.32,.62,.01,1.13,.12,1.52,.32,.38,.22,.68,.46,.88,.73,.31,.31,.54,.69,.67,1.14,.13,.46,.19,1.12,.19,1.98s-.06,1.52-.19,1.97c-.13,.45-.36,.84-.67,1.17-.1,.12-.23,.24-.37,.35-.13,.13-.3,.24-.51,.34-.39,.23-.89,.34-1.52,.35-.6-.01-1.1-.13-1.49-.35-.39-.2-.7-.44-.91-.69-.29-.33-.51-.72-.65-1.17-.14-.45-.21-1.11-.21-1.97Zm4.93,.02c0-.58-.02-1.01-.08-1.28-.05-.26-.16-.48-.31-.68-.12-.18-.29-.33-.52-.43-.22-.11-.47-.17-.76-.17-.27,0-.52,.05-.75,.17-.22,.1-.4,.25-.53,.43-.14,.19-.24,.42-.3,.68-.06,.27-.09,.69-.09,1.26s.03,.98,.09,1.25c.06,.27,.16,.51,.3,.71,.14,.16,.32,.3,.53,.42,.23,.12,.48,.17,.75,.17,.29,0,.54-.06,.76-.17,.23-.12,.4-.26,.52-.42,.16-.21,.26-.44,.31-.71,.05-.26,.08-.67,.08-1.23Z"></path><path d="M291.13,22.2h1.59v.87h.03c.52-.65,1.21-.97,2.06-.97,.65,0,1.25,.24,1.8,.72,.54,.48,.82,1.19,.84,2.12v5.43h-1.59v-4.87c0-.57-.15-1.01-.44-1.31-.29-.3-.66-.46-1.12-.46s-.83,.15-1.13,.46c-.3,.3-.45,.74-.45,1.31v4.87h-1.59v-8.17Z"></path></g><g><path d="M100.33,40.8h9.74v.78h-9.74v-.78Z"></path><path d="M115.26,41.37l-.52,.06v4c0,.71-.33,.76-1.53,.76-.03-.17-.13-.42-.21-.59,.46,.01,.86,.01,.97,.01,.14,0,.18-.04,.18-.18v-3.91l-2,.24c0,1.38-.1,3.22-.88,4.43-.11-.11-.36-.27-.5-.34,.73-1.14,.8-2.74,.8-4.02l-.4,.04c-.01,.08-.07,.13-.14,.15l-.24-.73,.78-.07v-3.33h.9c.17-.44,.35-1.05,.43-1.47l.87,.23c-.02,.06-.11,.11-.22,.11-.11,.32-.27,.77-.44,1.14h1.64v3l.5-.05v.54Zm-3.1-2.89v2.69l2-.21v-2.48h-2Zm1.03,2.12c-.08-.41-.32-1.01-.59-1.47l.45-.18c.29,.44,.55,1.04,.63,1.45l-.49,.2Zm.33,1.47c-.01,.06-.05,.11-.18,.12v2.37h-.48v-2.53l.66,.05Zm6.13-.88l.45,.18c-.02,.06-.06,.08-.09,.12-.34,1.19-.91,2.15-1.66,2.91,.67,.56,1.47,.98,2.39,1.21-.15,.14-.34,.41-.44,.59-.94-.28-1.75-.74-2.43-1.35-.71,.61-1.55,1.06-2.43,1.36-.08-.17-.25-.45-.4-.6,.84-.24,1.65-.66,2.34-1.24-.61-.66-1.09-1.47-1.43-2.38l.49-.13h-.89v-.64h3.97l.13-.03Zm-2.85-3.72v.81c0,.82-.18,1.86-1.04,2.56-.11-.13-.36-.35-.51-.43,.79-.62,.9-1.45,.9-2.14v-1.42h3.04v2.5c0,.36,.02,.4,.23,.4h.33c.09,0,.2,0,.24-.03,.15-.08,.15-.41,.17-1.09,.13,.12,.35,.23,.53,.28-.02,.94-.04,1.41-.87,1.41h-.53c-.75,0-.75-.46-.75-1.03v-1.81h-1.75Zm-.26,4.39c.29,.78,.75,1.48,1.31,2.07,.56-.57,1.02-1.26,1.31-2.07h-2.63Z"></path><path d="M125.66,38.67s-.07,.08-.13,.11c-.37,.87-.9,1.71-1.51,2.48,.5,.34,1.53,1.09,1.81,1.3l-.42,.59c-.29-.29-.97-.85-1.48-1.26v4.31h-.7v-4.05c-.54,.54-1.09,1.01-1.65,1.38-.07-.18-.26-.49-.38-.62,1.32-.82,2.72-2.28,3.48-3.83h-3.21v-.65h1.76v-2.01l.91,.05c-.01,.07-.07,.13-.21,.15v1.81h1.14l.13-.04,.47,.28Zm3.01,6.51h2.54v.69h-6.01v-.69h2.75v-4.55h-2.33v-.68h2.33v-3.45l.94,.06c-.01,.07-.07,.13-.22,.15v3.24h2.32v.68h-2.32v4.55Z"></path><path d="M132.31,36.92h8.88v9.26h-.73v-.49h-7.46v.49h-.69v-9.26Zm.69,8.08h7.46v-7.4h-7.46v7.4Zm7-5.52v.63h-1.62v3.53c0,.82-.41,.82-2.05,.82-.03-.18-.13-.44-.21-.62,.32,.01,.62,.01,.86,.01,.65,0,.73,0,.73-.21v-3.53h-4.11v-.63h4.11v-1.49l.87,.05c-.01,.06-.06,.12-.2,.14v1.3h1.62Zm-4.25,3.5c-.2-.58-.75-1.42-1.29-2.02l.53-.27c.55,.59,1.11,1.41,1.32,1.98l-.56,.32Z"></path><path d="M142.73,39.42c.74,.23,1.67,.64,2.15,.98l-.38,.61c-.46-.35-1.39-.79-2.12-1.04l.36-.55Zm.02,6.16c.55-.83,1.35-2.24,1.93-3.45,.42,.36,.47,.4,.53,.44-.54,1.14-1.24,2.45-1.76,3.26,.03,.05,.05,.1,.05,.15,0,.05-.02,.09-.05,.13l-.7-.53Zm.57-9.09c.74,.27,1.65,.73,2.11,1.1l-.41,.59c-.45-.38-1.36-.87-2.1-1.17l.4-.53Zm8.82,4.44v.68h-4.09l.38,.13c-.03,.06-.12,.11-.24,.12-.33,.89-.86,2.1-1.33,3.04,1.1-.06,2.4-.13,3.67-.21-.37-.55-.8-1.1-1.21-1.58l.6-.32c.83,.92,1.73,2.18,2.12,3.02l-.66,.38c-.11-.26-.27-.57-.46-.89-1.93,.16-3.96,.29-5.24,.38-.02,.08-.08,.14-.16,.15l-.29-.84,.87-.04c.48-.94,1.03-2.29,1.37-3.32h-2.25v-.68h3.03v-2.07h-2.51v-.67h2.51v-1.77l.97,.06c-.01,.11-.11,.18-.24,.2v1.5h2.57v.67h-2.57v2.07h3.18Z"></path><path d="M158.29,36.83c0,.08-.08,.14-.22,.16l-.02,.3c.12,1.48,.75,6.39,4.75,8.21-.2,.15-.42,.4-.54,.59-2.84-1.35-4.02-4.21-4.51-6.38h-.01c-.44,2.13-1.52,4.87-4.37,6.37-.13-.17-.35-.39-.57-.54,4.38-2.2,4.42-7.37,4.49-8.79l1,.07Z"></path><path d="M172.49,40.84h-3.47l.18,.05c-.01,.06-.1,.12-.21,.13-.27,1.9-1.14,3.8-3.25,4.86-.12-.14-.39-.38-.57-.52,2.07-1.03,2.8-2.63,3.04-4.52h-4.02v-.7h8.3v.7Zm-1.55-2.87h-5.84v-.7h5.84v.7Zm.14-1.55c.43,.45,.92,1.17,1.16,1.66l-.42,.28c-.22-.48-.73-1.23-1.15-1.66l.41-.28Zm1.24-.36c.43,.45,.94,1.17,1.19,1.65l-.43,.26c-.22-.46-.75-1.21-1.16-1.64l.4-.27Z"></path><path d="M181.98,39.17c-.04,.05-.11,.07-.18,.07-.05,0-.09-.01-.15-.02-.67,.67-1.53,1.39-2.31,1.95,.14,.05,.2,.07,.23,.09-.02,.04-.1,.1-.18,.12v4.56h-.64v-4.38c-.89,.63-2.32,1.46-3.46,2.01-.08-.13-.25-.38-.38-.49,1.81-.83,4.52-2.42,6.34-4.42l.73,.51Z"></path><path d="M187.26,44.67c2.67-.75,4.79-2.03,6.09-4.32,.14,.18,.4,.4,.56,.53-1.42,2.42-3.76,3.83-6.93,4.66-.02,.08-.08,.18-.17,.21l-.44-.74,.13-.2v-7.75l1.08,.05c-.01,.12-.11,.21-.32,.23v7.33Z"></path><path d="M203.52,38.71c-.04,.05-.1,.11-.16,.15-1.1,3.41-2.83,5.59-5.73,7.07-.13-.18-.33-.42-.54-.58,2.75-1.33,4.46-3.44,5.33-6.22h-3.75c-.61,.95-1.42,1.86-2.36,2.6-.15-.15-.39-.35-.6-.48,1.43-1.1,2.64-2.71,3.35-4.56l1,.28c-.04,.11-.17,.14-.31,.14-.21,.46-.43,.9-.67,1.32h3.7l.13-.06,.6,.36Z"></path><path d="M206.35,39.73c.95,.21,2.12,.61,2.83,.95l-.32,.66c-.69-.34-1.9-.76-2.83-.97l.32-.64Zm.63,5.14c3.42-1.15,5.75-2.97,7.15-6.12,.16,.14,.48,.36,.64,.46-1.41,3.12-3.86,5.07-7.08,6.21,.02,.09-.03,.22-.13,.26l-.59-.82Zm.53-7.75c.95,.25,2.1,.67,2.82,1.03l-.35,.64c-.75-.38-1.84-.8-2.79-1.06l.32-.61Z"></path><path d="M223.43,39.46v6.39h-.63v-.46h-4.72v-.59h4.72v-2.13h-4.3v-.59h4.3v-2.04h-4.46v-.58h5.09Z"></path><path d="M227.79,37.56c1.09,.35,2.36,.89,3.13,1.43l-.4,.66c-.76-.54-2-1.09-3.07-1.46l.34-.63Zm-.04,7.29c3.73-1.16,6.21-3.25,7.48-6.16,.22,.18,.46,.32,.68,.43-1.31,2.88-3.88,5.12-7.44,6.31-.01,.09-.07,.2-.15,.24l-.57-.82Z"></path><path d="M246.5,39.87h-2.2v.73c0,2.01-.62,4.05-3.36,5.29-.14-.17-.36-.38-.55-.53,2.67-1.16,3.16-3.03,3.16-4.75v-.74h-3.4v2.62h-.75v-2.62h-2.06v-.71h2.06v-2.28l1.01,.06c-.01,.11-.11,.2-.26,.22v2h3.4v-2.42l1.01,.06c-.01,.09-.1,.18-.26,.2v2.16h2.2v.71Z"></path><path d="M250.58,41.37c-.47,1.23-1.17,2.31-1.98,3.1l-.61-.4c.79-.74,1.47-1.73,1.9-2.96l.68,.26Zm2.25-1.62v4.93c0,1.15-.82,1.15-2.5,1.15-.04-.19-.13-.48-.22-.7,.3,.01,.64,.01,.93,.01h.61c.29,0,.43-.19,.43-.44v-4.94h-3.57v-.71h3.57v-2.22l1,.05c-.01,.11-.08,.18-.24,.2v1.97h3.55v.71h-3.55Zm1.88,1.28c.77,.85,1.65,2.09,2.22,3.06l-.67,.39c-.51-.96-1.44-2.31-2.14-3.11l.6-.34Zm1.37-4.85c.64,0,1.17,.53,1.17,1.18s-.53,1.18-1.17,1.18-1.19-.53-1.19-1.18,.55-1.18,1.19-1.18Zm.82,1.18c0-.46-.37-.84-.82-.84s-.84,.38-.84,.84,.38,.83,.84,.83,.82-.4,.82-.83Z"></path><path d="M258.53,40.74h8.78v.75h-8.38c-.06,.11-.2,.18-.34,.2l-.06-.95Z"></path><path d="M276.46,42.31c-1.07-.58-2.54-1.26-3.69-1.71v5.26h-.79v-9.14l1.06,.06c-.01,.12-.1,.19-.27,.22v3.07l.16-.22c1.23,.45,2.86,1.18,3.95,1.76l-.42,.7Z"></path><path d="M282.45,39.92h-1.28v6.26h-.68v-6.26h-1.36v-.66h1.36v-2.84l.88,.05c-.01,.07-.06,.13-.2,.15v2.64h1.28v.66Zm2.3,2.1l.34,.03c-.03,.21-.05,3.39-.42,3.86-.17,.21-.29,.29-1.29,.26-.01-.18-.06-.43-.16-.58,.3,.02,.56,.03,.68,.03,.12,0,.19-.02,.25-.12,.15-.18,.23-.9,.3-2.9h-.94c-.17,1.43-.57,2.73-1.55,3.59-.08-.14-.26-.34-.41-.43,.84-.73,1.19-1.85,1.34-3.15h-1.06v-.58h1.11c.03-.37,.04-.75,.05-1.12l.82,.06c-.01,.08-.08,.13-.2,.15-.01,.3-.03,.61-.05,.92h1.18Zm3.46-4.37c-.01,.06-.02,.14-.04,.21-.23,2.71-.4,2.78-1.53,2.78-.2,0-.44,0-.68-.02-.02-.19-.08-.44-.19-.61,.45,.04,.86,.05,1.03,.05,.16,0,.24-.02,.33-.09,.16-.15,.26-.62,.37-1.78h-2.06c-.36,1.16-1.09,2.06-2.66,2.64-.07-.16-.24-.38-.37-.49,1.35-.46,2.01-1.18,2.34-2.15h-1.93v-.59h2.09c.07-.37,.12-.77,.14-1.2l.87,.06c-.01,.08-.08,.14-.21,.16-.03,.34-.07,.66-.13,.98h2.1l.16-.02,.38,.07Zm.09,4.37h.34c-.04,.25,0,3.43-.35,3.87-.17,.24-.33,.3-1.38,.27-.02-.19-.08-.43-.17-.6,.35,.03,.64,.03,.77,.03,.12,0,.19-.01,.25-.1,.13-.17,.19-.89,.24-2.89h-1c-.18,1.44-.6,2.73-1.61,3.59-.1-.15-.27-.35-.42-.45,.88-.71,1.25-1.83,1.41-3.13h-1.01v-.58h1.06c.03-.37,.04-.74,.05-1.12l.84,.06c-.02,.08-.08,.13-.21,.15-.01,.3-.03,.61-.05,.92h1.23Z"></path><path d="M295.15,36.45c-.03,.08-.12,.14-.22,.16,1.03,1.43,2.93,2.84,4.58,3.55-.17,.17-.34,.42-.45,.63-1.67-.82-3.56-2.26-4.57-3.68-.87,1.3-2.63,2.8-4.47,3.72-.08-.15-.26-.42-.41-.57,1.85-.89,3.67-2.47,4.5-3.88l1.04,.06Zm-4.99,6v-.67h8.82v.67h-5.06l.13,.04c-.03,.07-.12,.11-.25,.12-.32,.71-.79,1.66-1.24,2.44,1.4-.03,3.03-.08,4.63-.14-.47-.55-1.02-1.11-1.55-1.58l.6-.33c.99,.85,2.05,2.01,2.54,2.81l-.63,.4c-.14-.22-.3-.47-.51-.74-2.56,.14-5.27,.25-6.95,.3-.02,.1-.08,.14-.17,.15l-.26-.84c.44,0,.96-.01,1.53-.03,.43-.76,.93-1.79,1.25-2.61h-2.88Zm1.8-2.71h5.1v.66h-5.1v-.66Z"></path></g><path d="M0,47.67V0H9.94c3.86,0,6.79,1.05,8.79,3.16,2,2.11,3,5.09,3,8.95v22.71c0,4.39-1.06,7.63-3.19,9.71-2.13,2.09-5.19,3.13-9.18,3.13H0ZM6.72,6.32V41.35h3.09c1.89,0,3.23-.47,4.02-1.42,.79-.94,1.19-2.43,1.19-4.44V12.12c0-1.84-.37-3.27-1.12-4.28-.75-1.01-2.11-1.51-4.08-1.51h-3.09Z"></path><path d="M27.65,47.67V16.6h6.72v31.07h-6.72Z"></path><path class="cls-1" d="M34.37,6.11v7.93h-6.72"></path><path d="M62.02,13.89h-6.72v-1.51c0-1.54-.36-2.86-1.09-3.98-.72-1.12-1.94-1.68-3.65-1.68-.92,0-1.67,.18-2.24,.53-.57,.35-1.03,.79-1.38,1.32-.35,.57-.59,1.22-.72,1.94-.13,.72-.2,1.48-.2,2.27,0,.92,.03,1.69,.1,2.3s.23,1.16,.49,1.65c.26,.48,.65,.9,1.15,1.25,.5,.35,1.2,.7,2.07,1.05l5.14,2.04c1.49,.57,2.7,1.24,3.62,2.01,.92,.77,1.65,1.66,2.17,2.67,.48,1.05,.81,2.25,.99,3.59,.18,1.34,.26,2.86,.26,4.58,0,1.98-.2,3.81-.59,5.5-.4,1.69-1.03,3.13-1.91,4.31-.92,1.23-2.13,2.2-3.62,2.9-1.49,.7-3.31,1.05-5.46,1.05-1.62,0-3.14-.29-4.54-.86-1.41-.57-2.61-1.36-3.62-2.37-1.01-1.01-1.81-2.18-2.4-3.52-.59-1.34-.89-2.8-.89-4.38v-2.5h6.72v2.11c0,1.23,.36,2.34,1.09,3.33s1.94,1.48,3.65,1.48c1.14,0,2.03-.16,2.67-.49,.64-.33,1.13-.8,1.48-1.42,.35-.61,.56-1.35,.63-2.21,.07-.86,.1-1.81,.1-2.86,0-1.23-.04-2.24-.13-3.03-.09-.79-.26-1.43-.53-1.91-.31-.48-.71-.88-1.22-1.18-.51-.31-1.17-.64-2.01-.99l-4.81-1.98c-2.9-1.19-4.84-2.75-5.83-4.71-.99-1.95-1.48-4.4-1.48-7.34,0-1.75,.24-3.42,.72-5,.48-1.58,1.21-2.94,2.17-4.08,.92-1.14,2.1-2.05,3.52-2.73,1.43-.68,3.13-1.02,5.1-1.02,1.67,0,3.19,.31,4.58,.92,1.38,.61,2.58,1.43,3.59,2.44,2.02,2.11,3.03,4.52,3.03,7.24v3.29Z"></path><path d="M64,47.63L74.47,0h5.6l10.47,47.63h-6.72l-1.98-10.07h-9.15l-1.98,10.07h-6.72Zm16.59-16.39l-3.29-16.99h-.13l-3.29,16.99h6.72Z"></path></svg> 