<?xml version="1.0" encoding="UTF-8"?> <svg xmlns="http://www.w3.org/2000/svg" id="a" viewBox="0 0 479.99 124.04"><g id="b"><g id="c"><g id="d"><g id="e"><path id="f" d="M0,3.42c22.51-.11,44.98-.11,67.64-.11-1.65,4.9-1.65,10.2,0,15.09h-23.07v62.63c-5.88.11-11.76.11-17.75,0-.11-20.94-.11-41.76-.11-62.62H0V3.42Z"></path><path id="g" d="M80.75,81.17c-.11-16.26-.11-32.55-.11-48.99,5.66,2.27,11.98,2.27,17.64,0v48.92c-5.81.11-11.61.11-17.53.11,0,0,0-.04,0-.04Z"></path><path id="h" d="M91.35.05c2.34.49,4.48,1.66,6.14,3.37,3.78,4.22,3.75,10.62-.07,14.79-4.1,4.38-10.98,4.6-15.36.5-4.38-4.1-4.6-10.98-.5-15.36,1.56-1.67,3.61-2.8,5.86-3.24,1.31-.11,2.55-.11,3.93-.11v.04h0Z"></path><path id="i" d="M116,81.18c-.11-25.92-.11-51.8-.11-77.79.37,0,.67-.07,1.02-.07,12.81,0,25.62-.15,38.43.07,5.59-.08,11.05,1.74,15.47,5.17,4.05,3.13,6.54,7.85,6.85,12.96.28,3.32-.34,6.66-1.8,9.66-1.56,3.2-4.09,5.82-7.23,7.49-.67.37-1.31.75-1.91,1.09,6.15,2.03,10.82,7.11,12.32,13.41,1.36,5.26.76,10.84-1.68,15.69-2.32,4.8-6.22,7.9-11.12,9.81-3.68,1.43-7.56,2.25-11.5,2.43-12.88.11-25.77.11-38.73.11M133.79,53.08v12.96h16.59c1.56.03,3.13-.14,4.64-.52,5.54-1.42,7.87-6.07,6.59-10.97-1.12-4.34-4.42-6.14-8.69-6.29-6.1-.26-12.25-.07-18.39-.07-.25,0-.5.03-.75.07v4.83M133.79,20.35v12.7h15.88c1.24,0,2.48-.08,3.71-.26,2.88-.49,5.24-1.76,6.22-4.76.81-2.1.59-4.46-.6-6.37-1.54-2.32-4.05-3.18-6.7-3.22-5.81-.07-11.57,0-17.38,0-.38-.01-.75.01-1.12.07v1.84h-.01Z"></path><path id="j" d="M191.75,64.9h12c.54,4.85,3.71,6.88,9.44,6.88,3.91,0,7.75-1.42,7.75-5.06,0-3.84-3.91-4.65-10.52-6.27-8.36-1.96-17.19-4.52-17.19-14.63s8.36-14.83,19.14-14.83,18.54,4.72,19.01,14.83h-11.65c-.47-3.71-3.3-5.8-7.75-5.8-4.18,0-6.94,1.82-6.94,4.52,0,3.37,3.71,4.18,10.92,5.8,8.97,2.09,17.05,4.85,17.05,15.17s-8.63,15.71-19.75,15.71c-12.81,0-21.23-5.66-21.5-16.31"></path><path id="k" d="M240.89,70.97v-18.54h-4.58v-6.88h4.58v-10.92h10.72v10.92h6.27v6.88h-6.27v16.18c0,2.7,1.48,3.37,3.84,3.37.94,0,2.02-.07,2.43-.07v8.02c-1.97.42-3.98.6-6,.54-6.4,0-10.99-2.09-10.99-9.5"></path><path id="l" d="M263.27,68.2v-22.65h10.92v20.36c0,3.78,1.68,5.86,5.19,5.86,3.78,0,6.07-2.83,6.07-6.94v-19.28h10.99v34.51h-10.52v-4.24h-.2c-2.28,3.44-6.19,5.43-10.31,5.26-7.95,0-12.13-5.19-12.13-12.88"></path><path id="m" d="M301.83,62.81c0-10.79,6.2-18.27,15.1-18.27,4.85,0,7.62,2.02,9.64,4.92h.2v-17.59h10.99v48.2h-10.52v-4.65h-.13c-2.08,3.64-5.99,5.84-10.18,5.73-8.83,0-15.1-6.81-15.1-18.34M327.04,62.81c0-5.8-2.36-9.98-7.15-9.98-4.38,0-6.94,4.04-6.94,9.84s2.56,9.77,6.81,9.77c4.58,0,7.28-3.98,7.28-9.64"></path><path id="n" d="M343.15,62.74c0-10.31,7.21-18.2,17.73-18.2,4.34-.12,8.56,1.42,11.8,4.31,4.11,3.78,6.13,9.77,6.07,16.78h-24.81c.67,4.65,3.24,7.55,7.75,7.55,2.9,0,4.79-1.28,5.73-3.44h10.72c-.87,3.34-2.93,6.24-5.8,8.16-3.17,2.16-6.95,3.27-10.79,3.17-11.39,0-18.4-7.89-18.4-18.34M367.62,59.1c-.4-4.11-2.97-6.74-6.54-6.74-4.18,0-6.34,2.63-7.08,6.74,0,0,13.62,0,13.62,0Z"></path><path id="o" d="M384.14,45.55h10.58v4.72h.2c2.56-3.71,5.87-5.73,10.65-5.73,7.55,0,12,5.39,12,13.08v22.45h-10.99v-20.22c0-3.64-1.82-6.13-5.39-6.13s-6.07,3.03-6.07,7.28v19.08h-10.99v-34.52h.01Z"></path><path id="p" d="M426.27,70.97v-18.54h-4.58v-6.88h4.58v-10.92h10.72v10.92h6.27v6.88h-6.27v16.18c0,2.7,1.48,3.37,3.84,3.37.94,0,2.02-.07,2.43-.07v8.02c-1.97.42-3.98.6-6,.54-6.4,0-10.99-2.09-10.99-9.5"></path><path id="q" d="M447.51,68.88h10.38c.4,3.44,2.7,5.12,6.34,5.12,3.3,0,5.39-1.21,5.39-3.44,0-3.1-4.18-3.44-8.77-4.24-6-1.02-12.4-2.63-12.4-10.72,0-7.28,6.74-11.06,14.9-11.06,9.77,0,15.03,4.24,15.57,11.06h-10.11c-.4-3.1-2.49-4.04-5.53-4.04-2.7,0-4.79,1.02-4.79,3.17,0,2.43,3.91,2.77,8.29,3.57,6.07,1.02,13.21,2.56,13.21,11.39,0,7.55-6.67,11.46-15.71,11.46-10.11,0-16.45-4.65-16.78-12.27"></path></g><g id="r"><path d="M40.86,104.98c-1.14,1.93-3.64,5.28-6.47,7.29l-2.19-1.77c2.32-1.35,4.62-3.96,5.39-5.46h-14.47c-1.06,0-1.98.08-3.12.16v-2.93c.98.13,2.06.24,3.12.24h14.76c.58,0,1.77-.08,2.19-.18l1.66,1.56c-.24.29-.66.79-.87,1.11v-.02ZM23.72,122.9l-2.43-1.98c.77-.26,1.69-.69,2.53-1.29,3.77-2.43,4.38-5.76,4.38-10.14,0-.71-.03-1.35-.16-2.11h3.01c0,6.89-.4,11.96-7.34,15.52h0Z"></path><path d="M54.32,116.01c4.25-2.61,7.55-6.57,9.16-9.95l1.61,2.88c-1.9,3.43-5.15,7.02-9.27,9.56-2.67,1.64-6.02,3.19-10.11,3.93l-1.77-2.72c4.41-.66,7.84-2.14,10.38-3.7ZM53.42,107.56l-2.09,2.14c-1.37-1.4-4.65-4.28-6.6-5.6l1.93-2.06c1.85,1.24,5.28,3.99,6.76,5.52Z"></path><path d="M70.78,104.03c0-.84-.08-2.06-.24-2.96h3.25c-.08.87-.18,2.03-.18,2.96v4.12c3.51,1.06,8.53,2.93,11.17,4.22l-1.19,2.88c-2.77-1.51-7.08-3.17-9.98-4.12v8.16c0,.82.08,2.43.21,3.38h-3.25c.13-.92.21-2.35.21-3.38v-15.26Z"></path><path d="M91.27,119.31v-14.76c0-.84-.11-2.06-.24-2.67h3.27c-.13.82-.21,1.77-.21,2.64v14.44c4.73-1.27,10.72-4.7,14.04-8.87l1.5,2.32c-3.51,4.3-8.98,7.5-15.39,9.48-.32.11-.82.24-1.32.55l-1.95-1.66c.26-.53.29-.92.29-1.48h0Z"></path><path d="M132.29,99.54c1.69,0,3.06,1.37,3.06,3.04s-1.37,3.04-3.06,3.04c-.24,0-.48-.03-.71-.08-.03.16-.08.34-.11.5-.61,2.69-1.82,6.86-3.96,9.69-2.4,3.11-5.7,5.65-10.48,7.15l-2.27-2.48c5.15-1.27,8.13-3.54,10.32-6.28,1.8-2.32,2.93-5.7,3.3-8.1h-12.99c-1.11,0-2.17.05-2.85.11v-2.96c.74.08,1.98.18,2.85.18h12.8c.32,0,.71,0,1.13-.05-.05-.24-.08-.48-.08-.71,0-1.66,1.35-3.04,3.04-3.04h.01ZM132.29,104.21c.9,0,1.66-.74,1.66-1.64s-.77-1.66-1.66-1.66-1.64.77-1.64,1.66.74,1.64,1.64,1.64Z"></path><path d="M140.12,119.31v-14.76c0-.84-.11-2.06-.24-2.67h3.27c-.13.82-.21,1.77-.21,2.64v14.44c4.73-1.27,10.72-4.7,14.04-8.87l1.5,2.32c-3.51,4.3-8.98,7.5-15.39,9.48-.32.11-.82.24-1.32.55l-1.95-1.66c.26-.53.29-.92.29-1.48h.01Z"></path><path d="M171.37,101.07h3.33c-.11.69-.18,2.06-.18,2.85v3.25h6.55c1.03,0,2.06-.05,2.53-.13v2.85c-.47-.05-1.64-.08-2.56-.08h-6.52c-.11,5.57-1.93,9.87-7.42,13.12l-2.59-1.93c5.07-2.35,7.02-6.2,7.15-11.19h-7.31c-1.06,0-2.06.03-2.72.11v-2.9c.63.08,1.66.16,2.67.16h7.37v-3.25c0-.84-.11-2.16-.29-2.85h-.01Z"></path><path d="M192.01,110.1h14.36c1.27,0,2.3-.11,2.96-.16v3.27c-.58-.03-1.8-.13-2.96-.13h-14.36c-1.45,0-3.04.05-3.93.13v-3.27c.87.05,2.51.16,3.93.16Z"></path><path d="M221.47,110.76l-1.53,2.35c-1.4-1-4.2-2.8-5.89-3.7l1.5-2.27c1.66.87,4.67,2.75,5.91,3.62h0ZM224.14,116.96c4.41-2.51,7.97-6.05,10.11-9.79l1.61,2.8c-2.38,3.59-6.05,6.97-10.32,9.45-2.67,1.56-6.36,2.82-8.76,3.27l-1.56-2.72c2.93-.5,6.15-1.48,8.92-3.01h0ZM225.43,104.92l-1.56,2.27c-1.35-.98-4.17-2.85-5.81-3.77l1.5-2.27c1.64.92,4.62,2.88,5.86,3.78h0Z"></path><path d="M243.33,113.66l-2.51.92c-.45-1.4-1.82-4.99-2.4-6.02l2.48-.9c.61,1.21,1.93,4.54,2.43,5.99h0ZM256.18,109.54c-.71,2.83-1.85,5.62-3.7,7.97-2.43,3.11-5.7,5.25-8.69,6.39l-2.19-2.24c2.98-.84,6.47-2.85,8.66-5.57,1.82-2.27,3.14-5.7,3.51-9.03l2.9.92c-.24.66-.4,1.14-.5,1.56h.01ZM249.16,112.03l-2.48.9c-.32-1.24-1.5-4.54-2.11-5.81l2.48-.82c.47,1.11,1.77,4.57,2.11,5.73Z"></path><path d="M279.67,99.54c1.69,0,3.06,1.37,3.06,3.04s-1.37,3.04-3.06,3.04c-.24,0-.48-.03-.71-.08-.03.16-.08.34-.11.5-.61,2.69-1.82,6.86-3.96,9.69-2.4,3.11-5.7,5.65-10.48,7.15l-2.27-2.48c5.15-1.27,8.13-3.54,10.32-6.28,1.8-2.32,2.93-5.7,3.3-8.1h-12.99c-1.11,0-2.17.05-2.85.11v-2.96c.74.08,1.98.18,2.85.18h12.8c.32,0,.71,0,1.13-.05-.05-.24-.08-.48-.08-.71,0-1.66,1.35-3.04,3.04-3.04h0ZM279.67,104.21c.9,0,1.66-.74,1.66-1.64s-.77-1.66-1.66-1.66-1.64.77-1.64,1.66.74,1.64,1.64,1.64Z"></path><path d="M308.05,104.13h-6.15c2.16,1.48,4.73,3.46,6.05,4.94l-2.11,1.43c-.42-.5-1-1.11-1.69-1.74-6.57.26-13.52.45-18.11.5l-.08-2.24c1.08,0,2.3-.03,3.62-.03.66-.9,1.35-1.93,1.87-2.85h-6.47v-2.17h10.24v-2.43h2.51v2.43h10.32v2.17h0ZM304.54,121.34c0,1.21-.32,1.82-1.24,2.11-.95.32-2.38.34-4.49.34-.13-.61-.45-1.45-.77-2.01,1.43.08,3.01.05,3.41.03.47,0,.61-.13.61-.5v-1.79h-10.98v4.28h-2.46v-13.17h15.92v10.72h0ZM291.07,112.66v1.66h10.98v-1.66h-10.98ZM302.05,117.75v-1.69h-10.98v1.69h10.98ZM294.56,104.13c-.71.95-1.51,1.93-2.24,2.8,2.93-.03,6.2-.11,9.48-.16-.79-.63-1.58-1.21-2.32-1.74l1.4-.9h-6.32Z"></path><path d="M333.94,108.57c-1.11,3.41-2.67,6.39-4.59,8.92.9,2.24,1.93,3.62,3.04,3.62.69,0,1-1.35,1.16-4.75.58.58,1.45,1.14,2.11,1.37-.4,4.65-1.29,5.89-3.46,5.89-1.93,0-3.46-1.48-4.65-3.96-1.51,1.58-3.17,2.93-4.99,4.04-.37-.53-1.24-1.56-1.8-2.01,2.19-1.21,4.14-2.75,5.76-4.62-.95-2.98-1.56-6.76-1.87-10.88h-8.45v3.19h6.63v.95c-.13,5.73-.26,8-.82,8.74-.47.55-.98.77-1.69.84-.66.11-1.85.11-3.11.05-.05-.71-.29-1.66-.66-2.3,1.08.11,2.11.13,2.53.13.37,0,.63-.08.82-.32.29-.37.45-1.87.53-5.86h-4.22c-.03,3.75-.47,9.03-2.8,12.43-.42-.5-1.5-1.37-2.06-1.69,2.11-3.17,2.3-7.71,2.3-11.11v-7.47h10.85c-.08-1.37-.13-2.8-.13-4.2h2.59c-.03,1.43,0,2.83.08,4.2h5.1c-1.03-.87-2.75-2.01-4.14-2.77l1.48-1.5c1.56.82,3.54,2.03,4.57,2.93l-1.27,1.35h2.69v2.4h-8.29c.26,3.14.69,5.99,1.29,8.34,1.27-1.95,2.24-4.14,3.01-6.57l2.48.61h-.02Z"></path><path d="M358.72,99.54c1.69,0,3.06,1.37,3.06,3.04s-1.37,3.04-3.06,3.04c-.24,0-.48-.03-.71-.08-.03.16-.08.34-.11.5-.61,2.69-1.82,6.86-3.96,9.69-2.4,3.11-5.7,5.65-10.48,7.15l-2.27-2.48c5.15-1.27,8.13-3.54,10.32-6.28,1.8-2.32,2.93-5.7,3.3-8.1h-12.99c-1.11,0-2.17.05-2.85.11v-2.96c.74.08,1.98.18,2.85.18h12.8c.32,0,.71,0,1.13-.05-.05-.24-.08-.48-.08-.71,0-1.66,1.35-3.04,3.04-3.04h0ZM358.72,104.21c.9,0,1.66-.74,1.66-1.64s-.77-1.66-1.66-1.66-1.64.77-1.64,1.66.74,1.64,1.64,1.64Z"></path><path d="M368.14,103.39h14.34c.61,0,1.56,0,2.43-.03-.05.71-.05,1.53-.05,2.27v12.96c0,.92.05,3.19.05,3.41h-2.88c.03-.13.03-.74.05-1.48h-13.68c0,.71,0,1.35.03,1.48h-2.88c.03-.24.08-2.35.08-3.41v-12.96c0-.69,0-1.61-.05-2.3,1.06.05,1.9.05,2.56.05h0ZM368.38,117.89h13.7v-11.85h-13.7v11.85Z"></path><path d="M400.56,104.13c-.13.24-.24.45-.4.69h6.36c.74,0,1.48-.11,1.98-.26l2.17,1.32c-.26.42-.55,1.08-.74,1.61-.71,2.53-2.27,6.07-4.65,8.98-2.43,2.98-5.62,5.41-10.56,7.31l-2.46-2.22c5.1-1.5,8.24-3.85,10.59-6.57,1.95-2.24,3.54-5.57,4.01-7.79h-8.26c-1.66,2.27-3.93,4.59-6.68,6.44l-2.32-1.72c4.59-2.77,7.05-6.42,8.29-8.74.32-.55.77-1.61.98-2.38l3.06,1c-.53.79-1.08,1.79-1.37,2.32h0ZM410.77,104l-1.74.74c-.53-1.06-1.37-2.64-2.09-3.64l1.69-.71c.66.95,1.61,2.59,2.14,3.62h0ZM413.81,102.84l-1.72.77c-.55-1.13-1.43-2.64-2.17-3.64l1.69-.71c.71.98,1.72,2.64,2.19,3.59h.01Z"></path><path d="M434.48,109.99c-.74,2.56-1.93,5.23-3.88,7.39-2.72,3.01-6.07,4.67-9.45,5.62l-2.06-2.38c3.85-.79,7.08-2.51,9.24-4.75,1.5-1.56,2.46-3.54,2.93-5.28h-13.44c-.63,0-1.79.03-2.8.11v-2.75c1.03.11,2.03.18,2.8.18h13.52c.71,0,1.35-.11,1.69-.24l1.87,1.16c-.16.29-.37.69-.42.92v.02ZM419.96,101.94h10.27c.84,0,1.93-.05,2.59-.13v2.72c-.66-.05-1.72-.08-2.61-.08h-10.24c-.84,0-1.8.03-2.53.08v-2.72c.69.08,1.66.13,2.53.13h-.01Z"></path><path d="M448.28,104.61c-.79,2.51-3.19,9.98-4.51,13.46,3.59-.32,8.05-.82,10.88-1.19-1-2.01-2.09-3.93-3.01-5.15l2.56-1.11c1.85,2.77,4.67,8.03,5.81,10.85l-2.8,1.27c-.34-.92-.82-2.09-1.37-3.3-4.2.5-12.65,1.43-16.08,1.74-.66.08-1.53.21-2.32.32l-.47-3.06c.82,0,1.85,0,2.64-.05.32-.03.69-.03,1.08-.05,1.48-3.78,3.99-11.67,4.73-14.34.37-1.27.47-1.98.58-2.75l3.3.69c-.29.71-.61,1.51-1,2.67h-.02Z"></path></g></g></g></g></svg> 